<?xml version="1.0" encoding="UTF-8"?>
<svg version="1.1" viewBox="0 0 880 880" xmlns="http://www.w3.org/2000/svg">
<defs>
<clipPath id="a">
<path d="m0 0h660v660h-660z"/>
</clipPath>
</defs>
<g transform="matrix(1.3333 0 0 -1.3333 0 880)">
<g clip-path="url(#a)">
<g transform="translate(559.4 542.41)">
<path d="m0 0c0-6.644-5.386-12.03-12.03-12.03s-12.03 5.386-12.03 12.03 5.386 12.03 12.03 12.03 12.03-5.386 12.03-12.03" fill="#38aa95"/>
</g>
<g transform="translate(602.26 542.41)">
<path d="m0 0c0-6.644-5.386-12.03-12.03-12.03s-12.03 5.386-12.03 12.03 5.386 12.03 12.03 12.03 12.03-5.386 12.03-12.03" fill="#bd164e"/>
</g>
<g transform="translate(645.11 542.41)">
<path d="m0 0c0-6.644-5.386-12.03-12.03-12.03s-12.03 5.386-12.03 12.03 5.386 12.03 12.03 12.03 12.03-5.386 12.03-12.03" fill="#161616"/>
</g>
<g transform="translate(559.4 610.12)">
<path d="m0 0c0-6.644-5.386-12.03-12.03-12.03s-12.03 5.386-12.03 12.03 5.386 12.03 12.03 12.03 12.03-5.386 12.03-12.03" fill="#38aa95"/>
</g>
<g transform="translate(602.26 610.12)">
<path d="m0 0c0-6.644-5.386-12.03-12.03-12.03s-12.03 5.386-12.03 12.03 5.386 12.03 12.03 12.03 12.03-5.386 12.03-12.03" fill="#bd164e"/>
</g>
<g transform="translate(645.11 610.12)">
<path d="m0 0c0-6.644-5.386-12.03-12.03-12.03s-12.03 5.386-12.03 12.03 5.386 12.03 12.03 12.03 12.03-5.386 12.03-12.03" fill="#161616"/>
</g>
<g transform="translate(583.46 574.47)">
<path d="m0 0c0-6.644-5.386-12.03-12.03-12.03s-12.03 5.386-12.03 12.03 5.386 12.03 12.03 12.03 12.03-5.386 12.03-12.03" fill="#707177"/>
</g>
<g transform="translate(626.32 574.47)">
<path d="m0 0c0-6.644-5.386-12.03-12.03-12.03s-12.03 5.386-12.03 12.03 5.386 12.03 12.03 12.03 12.03-5.386 12.03-12.03" fill="#cf154f"/>
</g>
<g transform="translate(669.17 574.47)">
<path d="m0 0c0-6.644-5.386-12.03-12.03-12.03s-12.03 5.386-12.03 12.03 5.386 12.03 12.03 12.03 12.03-5.386 12.03-12.03" fill="#63aea5"/>
</g>
<g transform="translate(583.46 642.18)">
<path d="m0 0c0-6.644-5.386-12.03-12.03-12.03s-12.03 5.386-12.03 12.03 5.386 12.03 12.03 12.03 12.03-5.386 12.03-12.03" fill="#707177"/>
</g>
<g transform="translate(626.32 642.18)">
<path d="m0 0c0-6.644-5.386-12.03-12.03-12.03s-12.03 5.386-12.03 12.03 5.386 12.03 12.03 12.03 12.03-5.386 12.03-12.03" fill="#cf154f"/>
</g>
<g transform="translate(669.17 642.18)">
<path d="m0 0c0-6.644-5.386-12.03-12.03-12.03s-12.03 5.386-12.03 12.03 5.386 12.03 12.03 12.03 12.03-5.386 12.03-12.03" fill="#63aea5"/>
</g>
<g transform="translate(559.4 407)">
<path d="m0 0c0-6.644-5.386-12.03-12.03-12.03s-12.03 5.386-12.03 12.03 5.386 12.03 12.03 12.03 12.03-5.386 12.03-12.03" fill="#38aa95"/>
</g>
<g transform="translate(602.26 407)">
<path d="m0 0c0-6.644-5.386-12.03-12.03-12.03s-12.03 5.386-12.03 12.03 5.386 12.03 12.03 12.03 12.03-5.386 12.03-12.03" fill="#bd164e"/>
</g>
<g transform="translate(645.11 407)">
<path d="m0 0c0-6.644-5.386-12.03-12.03-12.03s-12.03 5.386-12.03 12.03 5.386 12.03 12.03 12.03 12.03-5.386 12.03-12.03" fill="#161616"/>
</g>
<g transform="translate(559.4 474.7)">
<path d="m0 0c0-6.644-5.386-12.03-12.03-12.03s-12.03 5.386-12.03 12.03 5.386 12.03 12.03 12.03 12.03-5.386 12.03-12.03" fill="#38aa95"/>
</g>
<g transform="translate(602.26 474.7)">
<path d="m0 0c0-6.644-5.386-12.03-12.03-12.03s-12.03 5.386-12.03 12.03 5.386 12.03 12.03 12.03 12.03-5.386 12.03-12.03" fill="#bd164e"/>
</g>
<g transform="translate(645.11 474.7)">
<path d="m0 0c0-6.644-5.386-12.03-12.03-12.03s-12.03 5.386-12.03 12.03 5.386 12.03 12.03 12.03 12.03-5.386 12.03-12.03" fill="#161616"/>
</g>
<g transform="translate(583.46 439.06)">
<path d="m0 0c0-6.644-5.386-12.03-12.03-12.03s-12.03 5.386-12.03 12.03 5.386 12.03 12.03 12.03 12.03-5.386 12.03-12.03" fill="#707177"/>
</g>
<g transform="translate(626.32 439.06)">
<path d="m0 0c0-6.644-5.386-12.03-12.03-12.03s-12.03 5.386-12.03 12.03 5.386 12.03 12.03 12.03 12.03-5.386 12.03-12.03" fill="#cf154f"/>
</g>
<g transform="translate(669.17 439.06)">
<path d="m0 0c0-6.644-5.386-12.03-12.03-12.03s-12.03 5.386-12.03 12.03 5.386 12.03 12.03 12.03 12.03-5.386 12.03-12.03" fill="#63aea5"/>
</g>
<g transform="translate(583.46 506.76)">
<path d="m0 0c0-6.644-5.386-12.03-12.03-12.03s-12.03 5.386-12.03 12.03 5.386 12.03 12.03 12.03 12.03-5.386 12.03-12.03" fill="#707177"/>
</g>
<g transform="translate(626.32 506.76)">
<path d="m0 0c0-6.644-5.386-12.03-12.03-12.03s-12.03 5.386-12.03 12.03 5.386 12.03 12.03 12.03 12.03-5.386 12.03-12.03" fill="#cf154f"/>
</g>
<g transform="translate(669.17 506.76)">
<path d="m0 0c0-6.644-5.386-12.03-12.03-12.03s-12.03 5.386-12.03 12.03 5.386 12.03 12.03 12.03 12.03-5.386 12.03-12.03" fill="#63aea5"/>
</g>
<g transform="translate(559.4 271.58)">
<path d="m0 0c0-6.644-5.386-12.03-12.03-12.03s-12.03 5.386-12.03 12.03 5.386 12.03 12.03 12.03 12.03-5.386 12.03-12.03" fill="#38aa95"/>
</g>
<g transform="translate(602.26 271.58)">
<path d="m0 0c0-6.644-5.386-12.03-12.03-12.03s-12.03 5.386-12.03 12.03 5.386 12.03 12.03 12.03 12.03-5.386 12.03-12.03" fill="#bd164e"/>
</g>
<g transform="translate(645.11 271.58)">
<path d="m0 0c0-6.644-5.386-12.03-12.03-12.03s-12.03 5.386-12.03 12.03 5.386 12.03 12.03 12.03 12.03-5.386 12.03-12.03" fill="#161616"/>
</g>
<g transform="translate(559.4 339.29)">
<path d="m0 0c0-6.644-5.386-12.03-12.03-12.03s-12.03 5.386-12.03 12.03 5.386 12.03 12.03 12.03 12.03-5.386 12.03-12.03" fill="#38aa95"/>
</g>
<g transform="translate(602.26 339.29)">
<path d="m0 0c0-6.644-5.386-12.03-12.03-12.03s-12.03 5.386-12.03 12.03 5.386 12.03 12.03 12.03 12.03-5.386 12.03-12.03" fill="#bd164e"/>
</g>
<g transform="translate(645.11 339.29)">
<path d="m0 0c0-6.644-5.386-12.03-12.03-12.03s-12.03 5.386-12.03 12.03 5.386 12.03 12.03 12.03 12.03-5.386 12.03-12.03" fill="#161616"/>
</g>
<g transform="translate(583.46 303.64)">
<path d="m0 0c0-6.644-5.386-12.03-12.03-12.03s-12.03 5.386-12.03 12.03 5.386 12.03 12.03 12.03 12.03-5.386 12.03-12.03" fill="#707177"/>
</g>
<g transform="translate(626.32 303.64)">
<path d="m0 0c0-6.644-5.386-12.03-12.03-12.03s-12.03 5.386-12.03 12.03 5.386 12.03 12.03 12.03 12.03-5.386 12.03-12.03" fill="#cf154f"/>
</g>
<g transform="translate(669.17 303.64)">
<path d="m0 0c0-6.644-5.386-12.03-12.03-12.03s-12.03 5.386-12.03 12.03 5.386 12.03 12.03 12.03 12.03-5.386 12.03-12.03" fill="#63aea5"/>
</g>
<g transform="translate(583.46 371.35)">
<path d="m0 0c0-6.644-5.386-12.03-12.03-12.03s-12.03 5.386-12.03 12.03 5.386 12.03 12.03 12.03 12.03-5.386 12.03-12.03" fill="#707177"/>
</g>
<g transform="translate(626.32 371.35)">
<path d="m0 0c0-6.644-5.386-12.03-12.03-12.03s-12.03 5.386-12.03 12.03 5.386 12.03 12.03 12.03 12.03-5.386 12.03-12.03" fill="#cf154f"/>
</g>
<g transform="translate(669.17 371.35)">
<path d="m0 0c0-6.644-5.386-12.03-12.03-12.03s-12.03 5.386-12.03 12.03 5.386 12.03 12.03 12.03 12.03-5.386 12.03-12.03" fill="#63aea5"/>
</g>
<g transform="translate(559.4 136.17)">
<path d="m0 0c0-6.644-5.386-12.03-12.03-12.03s-12.03 5.386-12.03 12.03 5.386 12.03 12.03 12.03 12.03-5.386 12.03-12.03" fill="#38aa95"/>
</g>
<g transform="translate(602.26 136.17)">
<path d="m0 0c0-6.644-5.386-12.03-12.03-12.03s-12.03 5.386-12.03 12.03 5.386 12.03 12.03 12.03 12.03-5.386 12.03-12.03" fill="#bd164e"/>
</g>
<g transform="translate(645.11 136.17)">
<path d="m0 0c0-6.644-5.386-12.03-12.03-12.03s-12.03 5.386-12.03 12.03 5.386 12.03 12.03 12.03 12.03-5.386 12.03-12.03" fill="#161616"/>
</g>
<g transform="translate(559.4 203.88)">
<path d="m0 0c0-6.644-5.386-12.03-12.03-12.03s-12.03 5.386-12.03 12.03 5.386 12.03 12.03 12.03 12.03-5.386 12.03-12.03" fill="#38aa95"/>
</g>
<g transform="translate(602.26 203.88)">
<path d="m0 0c0-6.644-5.386-12.03-12.03-12.03s-12.03 5.386-12.03 12.03 5.386 12.03 12.03 12.03 12.03-5.386 12.03-12.03" fill="#bd164e"/>
</g>
<g transform="translate(645.11 203.88)">
<path d="m0 0c0-6.644-5.386-12.03-12.03-12.03s-12.03 5.386-12.03 12.03 5.386 12.03 12.03 12.03 12.03-5.386 12.03-12.03" fill="#161616"/>
</g>
<g transform="translate(583.46 168.23)">
<path d="m0 0c0-6.644-5.386-12.03-12.03-12.03s-12.03 5.386-12.03 12.03 5.386 12.03 12.03 12.03 12.03-5.386 12.03-12.03" fill="#707177"/>
</g>
<g transform="translate(626.32 168.23)">
<path d="m0 0c0-6.644-5.386-12.03-12.03-12.03s-12.03 5.386-12.03 12.03 5.386 12.03 12.03 12.03 12.03-5.386 12.03-12.03" fill="#cf154f"/>
</g>
<g transform="translate(669.17 168.23)">
<path d="m0 0c0-6.644-5.386-12.03-12.03-12.03s-12.03 5.386-12.03 12.03 5.386 12.03 12.03 12.03 12.03-5.386 12.03-12.03" fill="#63aea5"/>
</g>
<g transform="translate(583.46 235.94)">
<path d="m0 0c0-6.644-5.386-12.03-12.03-12.03s-12.03 5.386-12.03 12.03 5.386 12.03 12.03 12.03 12.03-5.386 12.03-12.03" fill="#707177"/>
</g>
<g transform="translate(626.32 235.94)">
<path d="m0 0c0-6.644-5.386-12.03-12.03-12.03s-12.03 5.386-12.03 12.03 5.386 12.03 12.03 12.03 12.03-5.386 12.03-12.03" fill="#cf154f"/>
</g>
<g transform="translate(669.17 235.94)">
<path d="m0 0c0-6.644-5.386-12.03-12.03-12.03s-12.03 5.386-12.03 12.03 5.386 12.03 12.03 12.03 12.03-5.386 12.03-12.03" fill="#63aea5"/>
</g>
<g transform="translate(559.4 .7558)">
<path d="m0 0c0-6.644-5.386-12.03-12.03-12.03s-12.03 5.386-12.03 12.03 5.386 12.03 12.03 12.03 12.03-5.386 12.03-12.03" fill="#38aa95"/>
</g>
<g transform="translate(602.26 .7558)">
<path d="m0 0c0-6.644-5.386-12.03-12.03-12.03s-12.03 5.386-12.03 12.03 5.386 12.03 12.03 12.03 12.03-5.386 12.03-12.03" fill="#bd164e"/>
</g>
<g transform="translate(645.11 .7558)">
<path d="m0 0c0-6.644-5.386-12.03-12.03-12.03s-12.03 5.386-12.03 12.03 5.386 12.03 12.03 12.03 12.03-5.386 12.03-12.03" fill="#161616"/>
</g>
<g transform="translate(559.4 68.463)">
<path d="m0 0c0-6.644-5.386-12.03-12.03-12.03s-12.03 5.386-12.03 12.03 5.386 12.03 12.03 12.03 12.03-5.386 12.03-12.03" fill="#38aa95"/>
</g>
<g transform="translate(602.26 68.463)">
<path d="m0 0c0-6.644-5.386-12.03-12.03-12.03s-12.03 5.386-12.03 12.03 5.386 12.03 12.03 12.03 12.03-5.386 12.03-12.03" fill="#bd164e"/>
</g>
<g transform="translate(645.11 68.463)">
<path d="m0 0c0-6.644-5.386-12.03-12.03-12.03s-12.03 5.386-12.03 12.03 5.386 12.03 12.03 12.03 12.03-5.386 12.03-12.03" fill="#161616"/>
</g>
<g transform="translate(583.46 32.816)">
<path d="m0 0c0-6.644-5.386-12.03-12.03-12.03s-12.03 5.386-12.03 12.03 5.386 12.03 12.03 12.03 12.03-5.386 12.03-12.03" fill="#707177"/>
</g>
<g transform="translate(626.32 32.816)">
<path d="m0 0c0-6.644-5.386-12.03-12.03-12.03s-12.03 5.386-12.03 12.03 5.386 12.03 12.03 12.03 12.03-5.386 12.03-12.03" fill="#cf154f"/>
</g>
<g transform="translate(669.17 32.816)">
<path d="m0 0c0-6.644-5.386-12.03-12.03-12.03s-12.03 5.386-12.03 12.03 5.386 12.03 12.03 12.03 12.03-5.386 12.03-12.03" fill="#63aea5"/>
</g>
<g transform="translate(583.46 100.52)">
<path d="m0 0c0-6.644-5.386-12.03-12.03-12.03s-12.03 5.386-12.03 12.03 5.386 12.03 12.03 12.03 12.03-5.386 12.03-12.03" fill="#707177"/>
</g>
<g transform="translate(626.32 100.52)">
<path d="m0 0c0-6.644-5.386-12.03-12.03-12.03s-12.03 5.386-12.03 12.03 5.386 12.03 12.03 12.03 12.03-5.386 12.03-12.03" fill="#cf154f"/>
</g>
<g transform="translate(669.17 100.52)">
<path d="m0 0c0-6.644-5.386-12.03-12.03-12.03s-12.03 5.386-12.03 12.03 5.386 12.03 12.03 12.03 12.03-5.386 12.03-12.03" fill="#63aea5"/>
</g>
<g transform="translate(425.56 542.41)">
<path d="m0 0c0-6.644-5.386-12.03-12.03-12.03s-12.03 5.386-12.03 12.03 5.386 12.03 12.03 12.03 12.03-5.386 12.03-12.03" fill="#38aa95"/>
</g>
<g transform="translate(468.42 542.41)">
<path d="m0 0c0-6.644-5.386-12.03-12.03-12.03s-12.03 5.386-12.03 12.03 5.386 12.03 12.03 12.03 12.03-5.386 12.03-12.03" fill="#bd164e"/>
</g>
<g transform="translate(511.28 542.41)">
<path d="m0 0c0-6.644-5.386-12.03-12.03-12.03s-12.03 5.386-12.03 12.03 5.386 12.03 12.03 12.03 12.03-5.386 12.03-12.03" fill="#161616"/>
</g>
<g transform="translate(425.56 610.12)">
<path d="m0 0c0-6.644-5.386-12.03-12.03-12.03s-12.03 5.386-12.03 12.03 5.386 12.03 12.03 12.03 12.03-5.386 12.03-12.03" fill="#38aa95"/>
</g>
<g transform="translate(468.42 610.12)">
<path d="m0 0c0-6.644-5.386-12.03-12.03-12.03s-12.03 5.386-12.03 12.03 5.386 12.03 12.03 12.03 12.03-5.386 12.03-12.03" fill="#bd164e"/>
</g>
<g transform="translate(511.28 610.12)">
<path d="m0 0c0-6.644-5.386-12.03-12.03-12.03s-12.03 5.386-12.03 12.03 5.386 12.03 12.03 12.03 12.03-5.386 12.03-12.03" fill="#161616"/>
</g>
<g transform="translate(449.62 574.47)">
<path d="m0 0c0-6.644-5.386-12.03-12.03-12.03s-12.03 5.386-12.03 12.03 5.386 12.03 12.03 12.03 12.03-5.386 12.03-12.03" fill="#707177"/>
</g>
<g transform="translate(492.48 574.47)">
<path d="m0 0c0-6.644-5.386-12.03-12.03-12.03s-12.03 5.386-12.03 12.03 5.386 12.03 12.03 12.03 12.03-5.386 12.03-12.03" fill="#cf154f"/>
</g>
<g transform="translate(535.34 574.47)">
<path d="m0 0c0-6.644-5.386-12.03-12.03-12.03s-12.03 5.386-12.03 12.03 5.386 12.03 12.03 12.03 12.03-5.386 12.03-12.03" fill="#63aea5"/>
</g>
<g transform="translate(449.62 642.18)">
<path d="m0 0c0-6.644-5.386-12.03-12.03-12.03s-12.03 5.386-12.03 12.03 5.386 12.03 12.03 12.03 12.03-5.386 12.03-12.03" fill="#707177"/>
</g>
<g transform="translate(492.48 642.18)">
<path d="m0 0c0-6.644-5.386-12.03-12.03-12.03s-12.03 5.386-12.03 12.03 5.386 12.03 12.03 12.03 12.03-5.386 12.03-12.03" fill="#cf154f"/>
</g>
<g transform="translate(535.34 642.18)">
<path d="m0 0c0-6.644-5.386-12.03-12.03-12.03s-12.03 5.386-12.03 12.03 5.386 12.03 12.03 12.03 12.03-5.386 12.03-12.03" fill="#63aea5"/>
</g>
<g transform="translate(425.56 407)">
<path d="m0 0c0-6.644-5.386-12.03-12.03-12.03s-12.03 5.386-12.03 12.03 5.386 12.03 12.03 12.03 12.03-5.386 12.03-12.03" fill="#38aa95"/>
</g>
<g transform="translate(468.42 407)">
<path d="m0 0c0-6.644-5.386-12.03-12.03-12.03s-12.03 5.386-12.03 12.03 5.386 12.03 12.03 12.03 12.03-5.386 12.03-12.03" fill="#bd164e"/>
</g>
<g transform="translate(511.28 407)">
<path d="m0 0c0-6.644-5.386-12.03-12.03-12.03s-12.03 5.386-12.03 12.03 5.386 12.03 12.03 12.03 12.03-5.386 12.03-12.03" fill="#161616"/>
</g>
<g transform="translate(425.56 474.7)">
<path d="m0 0c0-6.644-5.386-12.03-12.03-12.03s-12.03 5.386-12.03 12.03 5.386 12.03 12.03 12.03 12.03-5.386 12.03-12.03" fill="#38aa95"/>
</g>
<g transform="translate(468.42 474.7)">
<path d="m0 0c0-6.644-5.386-12.03-12.03-12.03s-12.03 5.386-12.03 12.03 5.386 12.03 12.03 12.03 12.03-5.386 12.03-12.03" fill="#bd164e"/>
</g>
<g transform="translate(511.28 474.7)">
<path d="m0 0c0-6.644-5.386-12.03-12.03-12.03s-12.03 5.386-12.03 12.03 5.386 12.03 12.03 12.03 12.03-5.386 12.03-12.03" fill="#161616"/>
</g>
<g transform="translate(449.62 439.06)">
<path d="m0 0c0-6.644-5.386-12.03-12.03-12.03s-12.03 5.386-12.03 12.03 5.386 12.03 12.03 12.03 12.03-5.386 12.03-12.03" fill="#707177"/>
</g>
<g transform="translate(492.48 439.06)">
<path d="m0 0c0-6.644-5.386-12.03-12.03-12.03s-12.03 5.386-12.03 12.03 5.386 12.03 12.03 12.03 12.03-5.386 12.03-12.03" fill="#cf154f"/>
</g>
<g transform="translate(535.34 439.06)">
<path d="m0 0c0-6.644-5.386-12.03-12.03-12.03s-12.03 5.386-12.03 12.03 5.386 12.03 12.03 12.03 12.03-5.386 12.03-12.03" fill="#63aea5"/>
</g>
<g transform="translate(449.62 506.76)">
<path d="m0 0c0-6.644-5.386-12.03-12.03-12.03s-12.03 5.386-12.03 12.03 5.386 12.03 12.03 12.03 12.03-5.386 12.03-12.03" fill="#707177"/>
</g>
<g transform="translate(492.48 506.76)">
<path d="m0 0c0-6.644-5.386-12.03-12.03-12.03s-12.03 5.386-12.03 12.03 5.386 12.03 12.03 12.03 12.03-5.386 12.03-12.03" fill="#cf154f"/>
</g>
<g transform="translate(535.34 506.76)">
<path d="m0 0c0-6.644-5.386-12.03-12.03-12.03s-12.03 5.386-12.03 12.03 5.386 12.03 12.03 12.03 12.03-5.386 12.03-12.03" fill="#63aea5"/>
</g>
<g transform="translate(425.56 271.58)">
<path d="m0 0c0-6.644-5.386-12.03-12.03-12.03s-12.03 5.386-12.03 12.03 5.386 12.03 12.03 12.03 12.03-5.386 12.03-12.03" fill="#38aa95"/>
</g>
<g transform="translate(468.42 271.58)">
<path d="m0 0c0-6.644-5.386-12.03-12.03-12.03s-12.03 5.386-12.03 12.03 5.386 12.03 12.03 12.03 12.03-5.386 12.03-12.03" fill="#bd164e"/>
</g>
<g transform="translate(511.28 271.58)">
<path d="m0 0c0-6.644-5.386-12.03-12.03-12.03s-12.03 5.386-12.03 12.03 5.386 12.03 12.03 12.03 12.03-5.386 12.03-12.03" fill="#161616"/>
</g>
<g transform="translate(425.56 339.29)">
<path d="m0 0c0-6.644-5.386-12.03-12.03-12.03s-12.03 5.386-12.03 12.03 5.386 12.03 12.03 12.03 12.03-5.386 12.03-12.03" fill="#38aa95"/>
</g>
<g transform="translate(468.42 339.29)">
<path d="m0 0c0-6.644-5.386-12.03-12.03-12.03s-12.03 5.386-12.03 12.03 5.386 12.03 12.03 12.03 12.03-5.386 12.03-12.03" fill="#bd164e"/>
</g>
<g transform="translate(511.28 339.29)">
<path d="m0 0c0-6.644-5.386-12.03-12.03-12.03s-12.03 5.386-12.03 12.03 5.386 12.03 12.03 12.03 12.03-5.386 12.03-12.03" fill="#161616"/>
</g>
<g transform="translate(449.62 303.64)">
<path d="m0 0c0-6.644-5.386-12.03-12.03-12.03s-12.03 5.386-12.03 12.03 5.386 12.03 12.03 12.03 12.03-5.386 12.03-12.03" fill="#707177"/>
</g>
<g transform="translate(492.48 303.64)">
<path d="m0 0c0-6.644-5.386-12.03-12.03-12.03s-12.03 5.386-12.03 12.03 5.386 12.03 12.03 12.03 12.03-5.386 12.03-12.03" fill="#cf154f"/>
</g>
<g transform="translate(535.34 303.64)">
<path d="m0 0c0-6.644-5.386-12.03-12.03-12.03s-12.03 5.386-12.03 12.03 5.386 12.03 12.03 12.03 12.03-5.386 12.03-12.03" fill="#63aea5"/>
</g>
<g transform="translate(449.62 371.35)">
<path d="m0 0c0-6.644-5.386-12.03-12.03-12.03s-12.03 5.386-12.03 12.03 5.386 12.03 12.03 12.03 12.03-5.386 12.03-12.03" fill="#707177"/>
</g>
<g transform="translate(492.48 371.35)">
<path d="m0 0c0-6.644-5.386-12.03-12.03-12.03s-12.03 5.386-12.03 12.03 5.386 12.03 12.03 12.03 12.03-5.386 12.03-12.03" fill="#cf154f"/>
</g>
<g transform="translate(535.34 371.35)">
<path d="m0 0c0-6.644-5.386-12.03-12.03-12.03s-12.03 5.386-12.03 12.03 5.386 12.03 12.03 12.03 12.03-5.386 12.03-12.03" fill="#63aea5"/>
</g>
<g transform="translate(425.56 136.17)">
<path d="m0 0c0-6.644-5.386-12.03-12.03-12.03s-12.03 5.386-12.03 12.03 5.386 12.03 12.03 12.03 12.03-5.386 12.03-12.03" fill="#38aa95"/>
</g>
<g transform="translate(468.42 136.17)">
<path d="m0 0c0-6.644-5.386-12.03-12.03-12.03s-12.03 5.386-12.03 12.03 5.386 12.03 12.03 12.03 12.03-5.386 12.03-12.03" fill="#bd164e"/>
</g>
<g transform="translate(511.28 136.17)">
<path d="m0 0c0-6.644-5.386-12.03-12.03-12.03s-12.03 5.386-12.03 12.03 5.386 12.03 12.03 12.03 12.03-5.386 12.03-12.03" fill="#161616"/>
</g>
<g transform="translate(425.56 203.88)">
<path d="m0 0c0-6.644-5.386-12.03-12.03-12.03s-12.03 5.386-12.03 12.03 5.386 12.03 12.03 12.03 12.03-5.386 12.03-12.03" fill="#38aa95"/>
</g>
<g transform="translate(468.42 203.88)">
<path d="m0 0c0-6.644-5.386-12.03-12.03-12.03s-12.03 5.386-12.03 12.03 5.386 12.03 12.03 12.03 12.03-5.386 12.03-12.03" fill="#bd164e"/>
</g>
<g transform="translate(511.28 203.88)">
<path d="m0 0c0-6.644-5.386-12.03-12.03-12.03s-12.03 5.386-12.03 12.03 5.386 12.03 12.03 12.03 12.03-5.386 12.03-12.03" fill="#161616"/>
</g>
<g transform="translate(449.62 168.23)">
<path d="m0 0c0-6.644-5.386-12.03-12.03-12.03s-12.03 5.386-12.03 12.03 5.386 12.03 12.03 12.03 12.03-5.386 12.03-12.03" fill="#707177"/>
</g>
<g transform="translate(492.48 168.23)">
<path d="m0 0c0-6.644-5.386-12.03-12.03-12.03s-12.03 5.386-12.03 12.03 5.386 12.03 12.03 12.03 12.03-5.386 12.03-12.03" fill="#cf154f"/>
</g>
<g transform="translate(535.34 168.23)">
<path d="m0 0c0-6.644-5.386-12.03-12.03-12.03s-12.03 5.386-12.03 12.03 5.386 12.03 12.03 12.03 12.03-5.386 12.03-12.03" fill="#63aea5"/>
</g>
<g transform="translate(449.62 235.94)">
<path d="m0 0c0-6.644-5.386-12.03-12.03-12.03s-12.03 5.386-12.03 12.03 5.386 12.03 12.03 12.03 12.03-5.386 12.03-12.03" fill="#707177"/>
</g>
<g transform="translate(492.48 235.94)">
<path d="m0 0c0-6.644-5.386-12.03-12.03-12.03s-12.03 5.386-12.03 12.03 5.386 12.03 12.03 12.03 12.03-5.386 12.03-12.03" fill="#cf154f"/>
</g>
<g transform="translate(535.34 235.94)">
<path d="m0 0c0-6.644-5.386-12.03-12.03-12.03s-12.03 5.386-12.03 12.03 5.386 12.03 12.03 12.03 12.03-5.386 12.03-12.03" fill="#63aea5"/>
</g>
<g transform="translate(425.56 .7558)">
<path d="m0 0c0-6.644-5.386-12.03-12.03-12.03s-12.03 5.386-12.03 12.03 5.386 12.03 12.03 12.03 12.03-5.386 12.03-12.03" fill="#38aa95"/>
</g>
<g transform="translate(468.42 .7558)">
<path d="m0 0c0-6.644-5.386-12.03-12.03-12.03s-12.03 5.386-12.03 12.03 5.386 12.03 12.03 12.03 12.03-5.386 12.03-12.03" fill="#bd164e"/>
</g>
<g transform="translate(511.28 .7558)">
<path d="m0 0c0-6.644-5.386-12.03-12.03-12.03s-12.03 5.386-12.03 12.03 5.386 12.03 12.03 12.03 12.03-5.386 12.03-12.03" fill="#161616"/>
</g>
<g transform="translate(425.56 68.463)">
<path d="m0 0c0-6.644-5.386-12.03-12.03-12.03s-12.03 5.386-12.03 12.03 5.386 12.03 12.03 12.03 12.03-5.386 12.03-12.03" fill="#38aa95"/>
</g>
<g transform="translate(468.42 68.463)">
<path d="m0 0c0-6.644-5.386-12.03-12.03-12.03s-12.03 5.386-12.03 12.03 5.386 12.03 12.03 12.03 12.03-5.386 12.03-12.03" fill="#bd164e"/>
</g>
<g transform="translate(511.28 68.463)">
<path d="m0 0c0-6.644-5.386-12.03-12.03-12.03s-12.03 5.386-12.03 12.03 5.386 12.03 12.03 12.03 12.03-5.386 12.03-12.03" fill="#161616"/>
</g>
<g transform="translate(449.62 32.816)">
<path d="m0 0c0-6.644-5.386-12.03-12.03-12.03s-12.03 5.386-12.03 12.03 5.386 12.03 12.03 12.03 12.03-5.386 12.03-12.03" fill="#707177"/>
</g>
<g transform="translate(492.48 32.816)">
<path d="m0 0c0-6.644-5.386-12.03-12.03-12.03s-12.03 5.386-12.03 12.03 5.386 12.03 12.03 12.03 12.03-5.386 12.03-12.03" fill="#cf154f"/>
</g>
<g transform="translate(535.34 32.816)">
<path d="m0 0c0-6.644-5.386-12.03-12.03-12.03s-12.03 5.386-12.03 12.03 5.386 12.03 12.03 12.03 12.03-5.386 12.03-12.03" fill="#63aea5"/>
</g>
<g transform="translate(449.62 100.52)">
<path d="m0 0c0-6.644-5.386-12.03-12.03-12.03s-12.03 5.386-12.03 12.03 5.386 12.03 12.03 12.03 12.03-5.386 12.03-12.03" fill="#707177"/>
</g>
<g transform="translate(492.48 100.52)">
<path d="m0 0c0-6.644-5.386-12.03-12.03-12.03s-12.03 5.386-12.03 12.03 5.386 12.03 12.03 12.03 12.03-5.386 12.03-12.03" fill="#cf154f"/>
</g>
<g transform="translate(535.34 100.52)">
<path d="m0 0c0-6.644-5.386-12.03-12.03-12.03s-12.03 5.386-12.03 12.03 5.386 12.03 12.03 12.03 12.03-5.386 12.03-12.03" fill="#63aea5"/>
</g>
<g transform="translate(291.73 542.41)">
<path d="m0 0c0-6.644-5.386-12.03-12.03-12.03s-12.03 5.386-12.03 12.03 5.386 12.03 12.03 12.03 12.03-5.386 12.03-12.03" fill="#38aa95"/>
</g>
<g transform="translate(334.59 542.41)">
<path d="m0 0c0-6.644-5.386-12.03-12.03-12.03s-12.03 5.386-12.03 12.03 5.386 12.03 12.03 12.03 12.03-5.386 12.03-12.03" fill="#bd164e"/>
</g>
<g transform="translate(377.44 542.41)">
<path d="m0 0c0-6.644-5.386-12.03-12.03-12.03s-12.03 5.386-12.03 12.03 5.386 12.03 12.03 12.03 12.03-5.386 12.03-12.03" fill="#161616"/>
</g>
<g transform="translate(291.73 610.12)">
<path d="m0 0c0-6.644-5.386-12.03-12.03-12.03s-12.03 5.386-12.03 12.03 5.386 12.03 12.03 12.03 12.03-5.386 12.03-12.03" fill="#38aa95"/>
</g>
<g transform="translate(334.59 610.12)">
<path d="m0 0c0-6.644-5.386-12.03-12.03-12.03s-12.03 5.386-12.03 12.03 5.386 12.03 12.03 12.03 12.03-5.386 12.03-12.03" fill="#bd164e"/>
</g>
<g transform="translate(377.44 610.12)">
<path d="m0 0c0-6.644-5.386-12.03-12.03-12.03s-12.03 5.386-12.03 12.03 5.386 12.03 12.03 12.03 12.03-5.386 12.03-12.03" fill="#161616"/>
</g>
<g transform="translate(315.79 574.47)">
<path d="m0 0c0-6.644-5.386-12.03-12.03-12.03s-12.03 5.386-12.03 12.03 5.386 12.03 12.03 12.03 12.03-5.386 12.03-12.03" fill="#707177"/>
</g>
<g transform="translate(358.65 574.47)">
<path d="m0 0c0-6.644-5.386-12.03-12.03-12.03s-12.03 5.386-12.03 12.03 5.386 12.03 12.03 12.03 12.03-5.386 12.03-12.03" fill="#cf154f"/>
</g>
<g transform="translate(401.5 574.47)">
<path d="m0 0c0-6.644-5.386-12.03-12.03-12.03s-12.03 5.386-12.03 12.03 5.386 12.03 12.03 12.03 12.03-5.386 12.03-12.03" fill="#63aea5"/>
</g>
<g transform="translate(315.79 642.18)">
<path d="m0 0c0-6.644-5.386-12.03-12.03-12.03s-12.03 5.386-12.03 12.03 5.386 12.03 12.03 12.03 12.03-5.386 12.03-12.03" fill="#707177"/>
</g>
<g transform="translate(358.65 642.18)">
<path d="m0 0c0-6.644-5.386-12.03-12.03-12.03s-12.03 5.386-12.03 12.03 5.386 12.03 12.03 12.03 12.03-5.386 12.03-12.03" fill="#cf154f"/>
</g>
<g transform="translate(401.5 642.18)">
<path d="m0 0c0-6.644-5.386-12.03-12.03-12.03s-12.03 5.386-12.03 12.03 5.386 12.03 12.03 12.03 12.03-5.386 12.03-12.03" fill="#63aea5"/>
</g>
<g transform="translate(291.73 407)">
<path d="m0 0c0-6.644-5.386-12.03-12.03-12.03s-12.03 5.386-12.03 12.03 5.386 12.03 12.03 12.03 12.03-5.386 12.03-12.03" fill="#38aa95"/>
</g>
<g transform="translate(334.59 407)">
<path d="m0 0c0-6.644-5.386-12.03-12.03-12.03s-12.03 5.386-12.03 12.03 5.386 12.03 12.03 12.03 12.03-5.386 12.03-12.03" fill="#bd164e"/>
</g>
<g transform="translate(377.44 407)">
<path d="m0 0c0-6.644-5.386-12.03-12.03-12.03s-12.03 5.386-12.03 12.03 5.386 12.03 12.03 12.03 12.03-5.386 12.03-12.03" fill="#161616"/>
</g>
<g transform="translate(291.73 474.7)">
<path d="m0 0c0-6.644-5.386-12.03-12.03-12.03s-12.03 5.386-12.03 12.03 5.386 12.03 12.03 12.03 12.03-5.386 12.03-12.03" fill="#38aa95"/>
</g>
<g transform="translate(334.59 474.7)">
<path d="m0 0c0-6.644-5.386-12.03-12.03-12.03s-12.03 5.386-12.03 12.03 5.386 12.03 12.03 12.03 12.03-5.386 12.03-12.03" fill="#bd164e"/>
</g>
<g transform="translate(377.44 474.7)">
<path d="m0 0c0-6.644-5.386-12.03-12.03-12.03s-12.03 5.386-12.03 12.03 5.386 12.03 12.03 12.03 12.03-5.386 12.03-12.03" fill="#161616"/>
</g>
<g transform="translate(315.79 439.06)">
<path d="m0 0c0-6.644-5.386-12.03-12.03-12.03s-12.03 5.386-12.03 12.03 5.386 12.03 12.03 12.03 12.03-5.386 12.03-12.03" fill="#707177"/>
</g>
<g transform="translate(358.65 439.06)">
<path d="m0 0c0-6.644-5.386-12.03-12.03-12.03s-12.03 5.386-12.03 12.03 5.386 12.03 12.03 12.03 12.03-5.386 12.03-12.03" fill="#cf154f"/>
</g>
<g transform="translate(401.5 439.06)">
<path d="m0 0c0-6.644-5.386-12.03-12.03-12.03s-12.03 5.386-12.03 12.03 5.386 12.03 12.03 12.03 12.03-5.386 12.03-12.03" fill="#63aea5"/>
</g>
<g transform="translate(315.79 506.76)">
<path d="m0 0c0-6.644-5.386-12.03-12.03-12.03s-12.03 5.386-12.03 12.03 5.386 12.03 12.03 12.03 12.03-5.386 12.03-12.03" fill="#707177"/>
</g>
<g transform="translate(358.65 506.76)">
<path d="m0 0c0-6.644-5.386-12.03-12.03-12.03s-12.03 5.386-12.03 12.03 5.386 12.03 12.03 12.03 12.03-5.386 12.03-12.03" fill="#cf154f"/>
</g>
<g transform="translate(401.5 506.76)">
<path d="m0 0c0-6.644-5.386-12.03-12.03-12.03s-12.03 5.386-12.03 12.03 5.386 12.03 12.03 12.03 12.03-5.386 12.03-12.03" fill="#63aea5"/>
</g>
<g transform="translate(291.73 271.58)">
<path d="m0 0c0-6.644-5.386-12.03-12.03-12.03s-12.03 5.386-12.03 12.03 5.386 12.03 12.03 12.03 12.03-5.386 12.03-12.03" fill="#38aa95"/>
</g>
<g transform="translate(334.59 271.58)">
<path d="m0 0c0-6.644-5.386-12.03-12.03-12.03s-12.03 5.386-12.03 12.03 5.386 12.03 12.03 12.03 12.03-5.386 12.03-12.03" fill="#bd164e"/>
</g>
<g transform="translate(377.44 271.58)">
<path d="m0 0c0-6.644-5.386-12.03-12.03-12.03s-12.03 5.386-12.03 12.03 5.386 12.03 12.03 12.03 12.03-5.386 12.03-12.03" fill="#161616"/>
</g>
<g transform="translate(291.73 339.29)">
<path d="m0 0c0-6.644-5.386-12.03-12.03-12.03s-12.03 5.386-12.03 12.03 5.386 12.03 12.03 12.03 12.03-5.386 12.03-12.03" fill="#38aa95"/>
</g>
<g transform="translate(334.59 339.29)">
<path d="m0 0c0-6.644-5.386-12.03-12.03-12.03s-12.03 5.386-12.03 12.03 5.386 12.03 12.03 12.03 12.03-5.386 12.03-12.03" fill="#bd164e"/>
</g>
<g transform="translate(377.44 339.29)">
<path d="m0 0c0-6.644-5.386-12.03-12.03-12.03s-12.03 5.386-12.03 12.03 5.386 12.03 12.03 12.03 12.03-5.386 12.03-12.03" fill="#161616"/>
</g>
<g transform="translate(315.79 303.64)">
<path d="m0 0c0-6.644-5.386-12.03-12.03-12.03s-12.03 5.386-12.03 12.03 5.386 12.03 12.03 12.03 12.03-5.386 12.03-12.03" fill="#707177"/>
</g>
<g transform="translate(358.65 303.64)">
<path d="m0 0c0-6.644-5.386-12.03-12.03-12.03s-12.03 5.386-12.03 12.03 5.386 12.03 12.03 12.03 12.03-5.386 12.03-12.03" fill="#cf154f"/>
</g>
<g transform="translate(401.5 303.64)">
<path d="m0 0c0-6.644-5.386-12.03-12.03-12.03s-12.03 5.386-12.03 12.03 5.386 12.03 12.03 12.03 12.03-5.386 12.03-12.03" fill="#63aea5"/>
</g>
<g transform="translate(315.79 371.35)">
<path d="m0 0c0-6.644-5.386-12.03-12.03-12.03s-12.03 5.386-12.03 12.03 5.386 12.03 12.03 12.03 12.03-5.386 12.03-12.03" fill="#707177"/>
</g>
<g transform="translate(358.65 371.35)">
<path d="m0 0c0-6.644-5.386-12.03-12.03-12.03s-12.03 5.386-12.03 12.03 5.386 12.03 12.03 12.03 12.03-5.386 12.03-12.03" fill="#cf154f"/>
</g>
<g transform="translate(401.5 371.35)">
<path d="m0 0c0-6.644-5.386-12.03-12.03-12.03s-12.03 5.386-12.03 12.03 5.386 12.03 12.03 12.03 12.03-5.386 12.03-12.03" fill="#63aea5"/>
</g>
<g transform="translate(291.73 136.17)">
<path d="m0 0c0-6.644-5.386-12.03-12.03-12.03s-12.03 5.386-12.03 12.03 5.386 12.03 12.03 12.03 12.03-5.386 12.03-12.03" fill="#38aa95"/>
</g>
<g transform="translate(334.59 136.17)">
<path d="m0 0c0-6.644-5.386-12.03-12.03-12.03s-12.03 5.386-12.03 12.03 5.386 12.03 12.03 12.03 12.03-5.386 12.03-12.03" fill="#bd164e"/>
</g>
<g transform="translate(377.44 136.17)">
<path d="m0 0c0-6.644-5.386-12.03-12.03-12.03s-12.03 5.386-12.03 12.03 5.386 12.03 12.03 12.03 12.03-5.386 12.03-12.03" fill="#161616"/>
</g>
<g transform="translate(291.73 203.88)">
<path d="m0 0c0-6.644-5.386-12.03-12.03-12.03s-12.03 5.386-12.03 12.03 5.386 12.03 12.03 12.03 12.03-5.386 12.03-12.03" fill="#38aa95"/>
</g>
<g transform="translate(334.59 203.88)">
<path d="m0 0c0-6.644-5.386-12.03-12.03-12.03s-12.03 5.386-12.03 12.03 5.386 12.03 12.03 12.03 12.03-5.386 12.03-12.03" fill="#bd164e"/>
</g>
<g transform="translate(377.44 203.88)">
<path d="m0 0c0-6.644-5.386-12.03-12.03-12.03s-12.03 5.386-12.03 12.03 5.386 12.03 12.03 12.03 12.03-5.386 12.03-12.03" fill="#161616"/>
</g>
<g transform="translate(315.79 168.23)">
<path d="m0 0c0-6.644-5.386-12.03-12.03-12.03s-12.03 5.386-12.03 12.03 5.386 12.03 12.03 12.03 12.03-5.386 12.03-12.03" fill="#707177"/>
</g>
<g transform="translate(358.65 168.23)">
<path d="m0 0c0-6.644-5.386-12.03-12.03-12.03s-12.03 5.386-12.03 12.03 5.386 12.03 12.03 12.03 12.03-5.386 12.03-12.03" fill="#cf154f"/>
</g>
<g transform="translate(401.5 168.23)">
<path d="m0 0c0-6.644-5.386-12.03-12.03-12.03s-12.03 5.386-12.03 12.03 5.386 12.03 12.03 12.03 12.03-5.386 12.03-12.03" fill="#63aea5"/>
</g>
<g transform="translate(315.79 235.94)">
<path d="m0 0c0-6.644-5.386-12.03-12.03-12.03s-12.03 5.386-12.03 12.03 5.386 12.03 12.03 12.03 12.03-5.386 12.03-12.03" fill="#707177"/>
</g>
<g transform="translate(358.65 235.94)">
<path d="m0 0c0-6.644-5.386-12.03-12.03-12.03s-12.03 5.386-12.03 12.03 5.386 12.03 12.03 12.03 12.03-5.386 12.03-12.03" fill="#cf154f"/>
</g>
<g transform="translate(401.5 235.94)">
<path d="m0 0c0-6.644-5.386-12.03-12.03-12.03s-12.03 5.386-12.03 12.03 5.386 12.03 12.03 12.03 12.03-5.386 12.03-12.03" fill="#63aea5"/>
</g>
<g transform="translate(291.73 .7558)">
<path d="m0 0c0-6.644-5.386-12.03-12.03-12.03s-12.03 5.386-12.03 12.03 5.386 12.03 12.03 12.03 12.03-5.386 12.03-12.03" fill="#38aa95"/>
</g>
<g transform="translate(334.59 .7558)">
<path d="m0 0c0-6.644-5.386-12.03-12.03-12.03s-12.03 5.386-12.03 12.03 5.386 12.03 12.03 12.03 12.03-5.386 12.03-12.03" fill="#bd164e"/>
</g>
<g transform="translate(377.44 .7558)">
<path d="m0 0c0-6.644-5.386-12.03-12.03-12.03s-12.03 5.386-12.03 12.03 5.386 12.03 12.03 12.03 12.03-5.386 12.03-12.03" fill="#161616"/>
</g>
<g transform="translate(291.73 68.463)">
<path d="m0 0c0-6.644-5.386-12.03-12.03-12.03s-12.03 5.386-12.03 12.03 5.386 12.03 12.03 12.03 12.03-5.386 12.03-12.03" fill="#38aa95"/>
</g>
<g transform="translate(334.59 68.463)">
<path d="m0 0c0-6.644-5.386-12.03-12.03-12.03s-12.03 5.386-12.03 12.03 5.386 12.03 12.03 12.03 12.03-5.386 12.03-12.03" fill="#bd164e"/>
</g>
<g transform="translate(377.44 68.463)">
<path d="m0 0c0-6.644-5.386-12.03-12.03-12.03s-12.03 5.386-12.03 12.03 5.386 12.03 12.03 12.03 12.03-5.386 12.03-12.03" fill="#161616"/>
</g>
<g transform="translate(315.79 32.816)">
<path d="m0 0c0-6.644-5.386-12.03-12.03-12.03s-12.03 5.386-12.03 12.03 5.386 12.03 12.03 12.03 12.03-5.386 12.03-12.03" fill="#707177"/>
</g>
<g transform="translate(358.65 32.816)">
<path d="m0 0c0-6.644-5.386-12.03-12.03-12.03s-12.03 5.386-12.03 12.03 5.386 12.03 12.03 12.03 12.03-5.386 12.03-12.03" fill="#cf154f"/>
</g>
<g transform="translate(401.5 32.816)">
<path d="m0 0c0-6.644-5.386-12.03-12.03-12.03s-12.03 5.386-12.03 12.03 5.386 12.03 12.03 12.03 12.03-5.386 12.03-12.03" fill="#63aea5"/>
</g>
<g transform="translate(315.79 100.52)">
<path d="m0 0c0-6.644-5.386-12.03-12.03-12.03s-12.03 5.386-12.03 12.03 5.386 12.03 12.03 12.03 12.03-5.386 12.03-12.03" fill="#707177"/>
</g>
<g transform="translate(358.65 100.52)">
<path d="m0 0c0-6.644-5.386-12.03-12.03-12.03s-12.03 5.386-12.03 12.03 5.386 12.03 12.03 12.03 12.03-5.386 12.03-12.03" fill="#cf154f"/>
</g>
<g transform="translate(401.5 100.52)">
<path d="m0 0c0-6.644-5.386-12.03-12.03-12.03s-12.03 5.386-12.03 12.03 5.386 12.03 12.03 12.03 12.03-5.386 12.03-12.03" fill="#63aea5"/>
</g>
<g transform="translate(157.89 542.41)">
<path d="m0 0c0-6.644-5.386-12.03-12.03-12.03s-12.03 5.386-12.03 12.03 5.386 12.03 12.03 12.03 12.03-5.386 12.03-12.03" fill="#38aa95"/>
</g>
<g transform="translate(200.75 542.41)">
<path d="m0 0c0-6.644-5.386-12.03-12.03-12.03s-12.03 5.386-12.03 12.03 5.386 12.03 12.03 12.03 12.03-5.386 12.03-12.03" fill="#bd164e"/>
</g>
<g transform="translate(243.61 542.41)">
<path d="m0 0c0-6.644-5.386-12.03-12.03-12.03s-12.03 5.386-12.03 12.03 5.386 12.03 12.03 12.03 12.03-5.386 12.03-12.03" fill="#161616"/>
</g>
<g transform="translate(157.89 610.12)">
<path d="m0 0c0-6.644-5.386-12.03-12.03-12.03s-12.03 5.386-12.03 12.03 5.386 12.03 12.03 12.03 12.03-5.386 12.03-12.03" fill="#38aa95"/>
</g>
<g transform="translate(200.75 610.12)">
<path d="m0 0c0-6.644-5.386-12.03-12.03-12.03s-12.03 5.386-12.03 12.03 5.386 12.03 12.03 12.03 12.03-5.386 12.03-12.03" fill="#bd164e"/>
</g>
<g transform="translate(243.61 610.12)">
<path d="m0 0c0-6.644-5.386-12.03-12.03-12.03s-12.03 5.386-12.03 12.03 5.386 12.03 12.03 12.03 12.03-5.386 12.03-12.03" fill="#161616"/>
</g>
<g transform="translate(181.95 574.47)">
<path d="m0 0c0-6.644-5.386-12.03-12.03-12.03s-12.03 5.386-12.03 12.03 5.386 12.03 12.03 12.03 12.03-5.386 12.03-12.03" fill="#707177"/>
</g>
<g transform="translate(224.81 574.47)">
<path d="m0 0c0-6.644-5.386-12.03-12.03-12.03s-12.03 5.386-12.03 12.03 5.386 12.03 12.03 12.03 12.03-5.386 12.03-12.03" fill="#cf154f"/>
</g>
<g transform="translate(267.67 574.47)">
<path d="m0 0c0-6.644-5.386-12.03-12.03-12.03s-12.03 5.386-12.03 12.03 5.386 12.03 12.03 12.03 12.03-5.386 12.03-12.03" fill="#63aea5"/>
</g>
<g transform="translate(181.95 642.18)">
<path d="m0 0c0-6.644-5.386-12.03-12.03-12.03s-12.03 5.386-12.03 12.03 5.386 12.03 12.03 12.03 12.03-5.386 12.03-12.03" fill="#707177"/>
</g>
<g transform="translate(224.81 642.18)">
<path d="m0 0c0-6.644-5.386-12.03-12.03-12.03s-12.03 5.386-12.03 12.03 5.386 12.03 12.03 12.03 12.03-5.386 12.03-12.03" fill="#cf154f"/>
</g>
<g transform="translate(267.67 642.18)">
<path d="m0 0c0-6.644-5.386-12.03-12.03-12.03s-12.03 5.386-12.03 12.03 5.386 12.03 12.03 12.03 12.03-5.386 12.03-12.03" fill="#63aea5"/>
</g>
<g transform="translate(157.89 407)">
<path d="m0 0c0-6.644-5.386-12.03-12.03-12.03s-12.03 5.386-12.03 12.03 5.386 12.03 12.03 12.03 12.03-5.386 12.03-12.03" fill="#38aa95"/>
</g>
<g transform="translate(200.75 407)">
<path d="m0 0c0-6.644-5.386-12.03-12.03-12.03s-12.03 5.386-12.03 12.03 5.386 12.03 12.03 12.03 12.03-5.386 12.03-12.03" fill="#bd164e"/>
</g>
<g transform="translate(243.61 407)">
<path d="m0 0c0-6.644-5.386-12.03-12.03-12.03s-12.03 5.386-12.03 12.03 5.386 12.03 12.03 12.03 12.03-5.386 12.03-12.03" fill="#161616"/>
</g>
<g transform="translate(157.89 474.7)">
<path d="m0 0c0-6.644-5.386-12.03-12.03-12.03s-12.03 5.386-12.03 12.03 5.386 12.03 12.03 12.03 12.03-5.386 12.03-12.03" fill="#38aa95"/>
</g>
<g transform="translate(200.75 474.7)">
<path d="m0 0c0-6.644-5.386-12.03-12.03-12.03s-12.03 5.386-12.03 12.03 5.386 12.03 12.03 12.03 12.03-5.386 12.03-12.03" fill="#bd164e"/>
</g>
<g transform="translate(243.61 474.7)">
<path d="m0 0c0-6.644-5.386-12.03-12.03-12.03s-12.03 5.386-12.03 12.03 5.386 12.03 12.03 12.03 12.03-5.386 12.03-12.03" fill="#161616"/>
</g>
<g transform="translate(181.95 439.06)">
<path d="m0 0c0-6.644-5.386-12.03-12.03-12.03s-12.03 5.386-12.03 12.03 5.386 12.03 12.03 12.03 12.03-5.386 12.03-12.03" fill="#707177"/>
</g>
<g transform="translate(224.81 439.06)">
<path d="m0 0c0-6.644-5.386-12.03-12.03-12.03s-12.03 5.386-12.03 12.03 5.386 12.03 12.03 12.03 12.03-5.386 12.03-12.03" fill="#cf154f"/>
</g>
<g transform="translate(267.67 439.06)">
<path d="m0 0c0-6.644-5.386-12.03-12.03-12.03s-12.03 5.386-12.03 12.03 5.386 12.03 12.03 12.03 12.03-5.386 12.03-12.03" fill="#63aea5"/>
</g>
<g transform="translate(181.95 506.76)">
<path d="m0 0c0-6.644-5.386-12.03-12.03-12.03s-12.03 5.386-12.03 12.03 5.386 12.03 12.03 12.03 12.03-5.386 12.03-12.03" fill="#707177"/>
</g>
<g transform="translate(224.81 506.76)">
<path d="m0 0c0-6.644-5.386-12.03-12.03-12.03s-12.03 5.386-12.03 12.03 5.386 12.03 12.03 12.03 12.03-5.386 12.03-12.03" fill="#cf154f"/>
</g>
<g transform="translate(267.67 506.76)">
<path d="m0 0c0-6.644-5.386-12.03-12.03-12.03s-12.03 5.386-12.03 12.03 5.386 12.03 12.03 12.03 12.03-5.386 12.03-12.03" fill="#63aea5"/>
</g>
<g transform="translate(157.89 271.58)">
<path d="m0 0c0-6.644-5.386-12.03-12.03-12.03s-12.03 5.386-12.03 12.03 5.386 12.03 12.03 12.03 12.03-5.386 12.03-12.03" fill="#38aa95"/>
</g>
<g transform="translate(200.75 271.58)">
<path d="m0 0c0-6.644-5.386-12.03-12.03-12.03s-12.03 5.386-12.03 12.03 5.386 12.03 12.03 12.03 12.03-5.386 12.03-12.03" fill="#bd164e"/>
</g>
<g transform="translate(243.61 271.58)">
<path d="m0 0c0-6.644-5.386-12.03-12.03-12.03s-12.03 5.386-12.03 12.03 5.386 12.03 12.03 12.03 12.03-5.386 12.03-12.03" fill="#161616"/>
</g>
<g transform="translate(157.89 339.29)">
<path d="m0 0c0-6.644-5.386-12.03-12.03-12.03s-12.03 5.386-12.03 12.03 5.386 12.03 12.03 12.03 12.03-5.386 12.03-12.03" fill="#38aa95"/>
</g>
<g transform="translate(200.75 339.29)">
<path d="m0 0c0-6.644-5.386-12.03-12.03-12.03s-12.03 5.386-12.03 12.03 5.386 12.03 12.03 12.03 12.03-5.386 12.03-12.03" fill="#bd164e"/>
</g>
<g transform="translate(243.61 339.29)">
<path d="m0 0c0-6.644-5.386-12.03-12.03-12.03s-12.03 5.386-12.03 12.03 5.386 12.03 12.03 12.03 12.03-5.386 12.03-12.03" fill="#161616"/>
</g>
<g transform="translate(181.95 303.64)">
<path d="m0 0c0-6.644-5.386-12.03-12.03-12.03s-12.03 5.386-12.03 12.03 5.386 12.03 12.03 12.03 12.03-5.386 12.03-12.03" fill="#707177"/>
</g>
<g transform="translate(224.81 303.64)">
<path d="m0 0c0-6.644-5.386-12.03-12.03-12.03s-12.03 5.386-12.03 12.03 5.386 12.03 12.03 12.03 12.03-5.386 12.03-12.03" fill="#cf154f"/>
</g>
<g transform="translate(267.67 303.64)">
<path d="m0 0c0-6.644-5.386-12.03-12.03-12.03s-12.03 5.386-12.03 12.03 5.386 12.03 12.03 12.03 12.03-5.386 12.03-12.03" fill="#63aea5"/>
</g>
<g transform="translate(181.95 371.35)">
<path d="m0 0c0-6.644-5.386-12.03-12.03-12.03s-12.03 5.386-12.03 12.03 5.386 12.03 12.03 12.03 12.03-5.386 12.03-12.03" fill="#707177"/>
</g>
<g transform="translate(224.81 371.35)">
<path d="m0 0c0-6.644-5.386-12.03-12.03-12.03s-12.03 5.386-12.03 12.03 5.386 12.03 12.03 12.03 12.03-5.386 12.03-12.03" fill="#cf154f"/>
</g>
<g transform="translate(267.67 371.35)">
<path d="m0 0c0-6.644-5.386-12.03-12.03-12.03s-12.03 5.386-12.03 12.03 5.386 12.03 12.03 12.03 12.03-5.386 12.03-12.03" fill="#63aea5"/>
</g>
<g transform="translate(157.89 136.17)">
<path d="m0 0c0-6.644-5.386-12.03-12.03-12.03s-12.03 5.386-12.03 12.03 5.386 12.03 12.03 12.03 12.03-5.386 12.03-12.03" fill="#38aa95"/>
</g>
<g transform="translate(200.75 136.17)">
<path d="m0 0c0-6.644-5.386-12.03-12.03-12.03s-12.03 5.386-12.03 12.03 5.386 12.03 12.03 12.03 12.03-5.386 12.03-12.03" fill="#bd164e"/>
</g>
<g transform="translate(243.61 136.17)">
<path d="m0 0c0-6.644-5.386-12.03-12.03-12.03s-12.03 5.386-12.03 12.03 5.386 12.03 12.03 12.03 12.03-5.386 12.03-12.03" fill="#161616"/>
</g>
<g transform="translate(157.89 203.88)">
<path d="m0 0c0-6.644-5.386-12.03-12.03-12.03s-12.03 5.386-12.03 12.03 5.386 12.03 12.03 12.03 12.03-5.386 12.03-12.03" fill="#38aa95"/>
</g>
<g transform="translate(200.75 203.88)">
<path d="m0 0c0-6.644-5.386-12.03-12.03-12.03s-12.03 5.386-12.03 12.03 5.386 12.03 12.03 12.03 12.03-5.386 12.03-12.03" fill="#bd164e"/>
</g>
<g transform="translate(243.61 203.88)">
<path d="m0 0c0-6.644-5.386-12.03-12.03-12.03s-12.03 5.386-12.03 12.03 5.386 12.03 12.03 12.03 12.03-5.386 12.03-12.03" fill="#161616"/>
</g>
<g transform="translate(181.95 168.23)">
<path d="m0 0c0-6.644-5.386-12.03-12.03-12.03s-12.03 5.386-12.03 12.03 5.386 12.03 12.03 12.03 12.03-5.386 12.03-12.03" fill="#707177"/>
</g>
<g transform="translate(224.81 168.23)">
<path d="m0 0c0-6.644-5.386-12.03-12.03-12.03s-12.03 5.386-12.03 12.03 5.386 12.03 12.03 12.03 12.03-5.386 12.03-12.03" fill="#cf154f"/>
</g>
<g transform="translate(267.67 168.23)">
<path d="m0 0c0-6.644-5.386-12.03-12.03-12.03s-12.03 5.386-12.03 12.03 5.386 12.03 12.03 12.03 12.03-5.386 12.03-12.03" fill="#63aea5"/>
</g>
<g transform="translate(181.95 235.94)">
<path d="m0 0c0-6.644-5.386-12.03-12.03-12.03s-12.03 5.386-12.03 12.03 5.386 12.03 12.03 12.03 12.03-5.386 12.03-12.03" fill="#707177"/>
</g>
<g transform="translate(224.81 235.94)">
<path d="m0 0c0-6.644-5.386-12.03-12.03-12.03s-12.03 5.386-12.03 12.03 5.386 12.03 12.03 12.03 12.03-5.386 12.03-12.03" fill="#cf154f"/>
</g>
<g transform="translate(267.67 235.94)">
<path d="m0 0c0-6.644-5.386-12.03-12.03-12.03s-12.03 5.386-12.03 12.03 5.386 12.03 12.03 12.03 12.03-5.386 12.03-12.03" fill="#63aea5"/>
</g>
<g transform="translate(157.89 .7558)">
<path d="m0 0c0-6.644-5.386-12.03-12.03-12.03s-12.03 5.386-12.03 12.03 5.386 12.03 12.03 12.03 12.03-5.386 12.03-12.03" fill="#38aa95"/>
</g>
<g transform="translate(200.75 .7558)">
<path d="m0 0c0-6.644-5.386-12.03-12.03-12.03s-12.03 5.386-12.03 12.03 5.386 12.03 12.03 12.03 12.03-5.386 12.03-12.03" fill="#bd164e"/>
</g>
<g transform="translate(243.61 .7558)">
<path d="m0 0c0-6.644-5.386-12.03-12.03-12.03s-12.03 5.386-12.03 12.03 5.386 12.03 12.03 12.03 12.03-5.386 12.03-12.03" fill="#161616"/>
</g>
<g transform="translate(157.89 68.463)">
<path d="m0 0c0-6.644-5.386-12.03-12.03-12.03s-12.03 5.386-12.03 12.03 5.386 12.03 12.03 12.03 12.03-5.386 12.03-12.03" fill="#38aa95"/>
</g>
<g transform="translate(200.75 68.463)">
<path d="m0 0c0-6.644-5.386-12.03-12.03-12.03s-12.03 5.386-12.03 12.03 5.386 12.03 12.03 12.03 12.03-5.386 12.03-12.03" fill="#bd164e"/>
</g>
<g transform="translate(243.61 68.463)">
<path d="m0 0c0-6.644-5.386-12.03-12.03-12.03s-12.03 5.386-12.03 12.03 5.386 12.03 12.03 12.03 12.03-5.386 12.03-12.03" fill="#161616"/>
</g>
<g transform="translate(181.95 32.816)">
<path d="m0 0c0-6.644-5.386-12.03-12.03-12.03s-12.03 5.386-12.03 12.03 5.386 12.03 12.03 12.03 12.03-5.386 12.03-12.03" fill="#707177"/>
</g>
<g transform="translate(224.81 32.816)">
<path d="m0 0c0-6.644-5.386-12.03-12.03-12.03s-12.03 5.386-12.03 12.03 5.386 12.03 12.03 12.03 12.03-5.386 12.03-12.03" fill="#cf154f"/>
</g>
<g transform="translate(267.67 32.816)">
<path d="m0 0c0-6.644-5.386-12.03-12.03-12.03s-12.03 5.386-12.03 12.03 5.386 12.03 12.03 12.03 12.03-5.386 12.03-12.03" fill="#63aea5"/>
</g>
<g transform="translate(181.95 100.52)">
<path d="m0 0c0-6.644-5.386-12.03-12.03-12.03s-12.03 5.386-12.03 12.03 5.386 12.03 12.03 12.03 12.03-5.386 12.03-12.03" fill="#707177"/>
</g>
<g transform="translate(224.81 100.52)">
<path d="m0 0c0-6.644-5.386-12.03-12.03-12.03s-12.03 5.386-12.03 12.03 5.386 12.03 12.03 12.03 12.03-5.386 12.03-12.03" fill="#cf154f"/>
</g>
<g transform="translate(267.67 100.52)">
<path d="m0 0c0-6.644-5.386-12.03-12.03-12.03s-12.03 5.386-12.03 12.03 5.386 12.03 12.03 12.03 12.03-5.386 12.03-12.03" fill="#63aea5"/>
</g>
<g transform="translate(24.06 542.41)">
<path d="m0 0c0-6.644-5.386-12.03-12.03-12.03s-12.03 5.386-12.03 12.03 5.386 12.03 12.03 12.03 12.03-5.386 12.03-12.03" fill="#38aa95"/>
</g>
<g transform="translate(66.917 542.41)">
<path d="m0 0c0-6.644-5.386-12.03-12.03-12.03s-12.03 5.386-12.03 12.03 5.386 12.03 12.03 12.03 12.03-5.386 12.03-12.03" fill="#bd164e"/>
</g>
<g transform="translate(109.77 542.41)">
<path d="m0 0c0-6.644-5.386-12.03-12.03-12.03s-12.03 5.386-12.03 12.03 5.386 12.03 12.03 12.03 12.03-5.386 12.03-12.03" fill="#161616"/>
</g>
<g transform="translate(24.06 610.12)">
<path d="m0 0c0-6.644-5.386-12.03-12.03-12.03s-12.03 5.386-12.03 12.03 5.386 12.03 12.03 12.03 12.03-5.386 12.03-12.03" fill="#38aa95"/>
</g>
<g transform="translate(66.917 610.12)">
<path d="m0 0c0-6.644-5.386-12.03-12.03-12.03s-12.03 5.386-12.03 12.03 5.386 12.03 12.03 12.03 12.03-5.386 12.03-12.03" fill="#bd164e"/>
</g>
<g transform="translate(109.77 610.12)">
<path d="m0 0c0-6.644-5.386-12.03-12.03-12.03s-12.03 5.386-12.03 12.03 5.386 12.03 12.03 12.03 12.03-5.386 12.03-12.03" fill="#161616"/>
</g>
<g transform="translate(48.12 574.47)">
<path d="m0 0c0-6.644-5.386-12.03-12.03-12.03s-12.03 5.386-12.03 12.03 5.386 12.03 12.03 12.03 12.03-5.386 12.03-12.03" fill="#707177"/>
</g>
<g transform="translate(90.978 574.47)">
<path d="m0 0c0-6.644-5.386-12.03-12.03-12.03s-12.03 5.386-12.03 12.03 5.386 12.03 12.03 12.03 12.03-5.386 12.03-12.03" fill="#cf154f"/>
</g>
<g transform="translate(133.83 574.47)">
<path d="m0 0c0-6.644-5.386-12.03-12.03-12.03s-12.03 5.386-12.03 12.03 5.386 12.03 12.03 12.03 12.03-5.386 12.03-12.03" fill="#63aea5"/>
</g>
<g transform="translate(48.12 642.18)">
<path d="m0 0c0-6.644-5.386-12.03-12.03-12.03s-12.03 5.386-12.03 12.03 5.386 12.03 12.03 12.03 12.03-5.386 12.03-12.03" fill="#707177"/>
</g>
<g transform="translate(90.978 642.18)">
<path d="m0 0c0-6.644-5.386-12.03-12.03-12.03s-12.03 5.386-12.03 12.03 5.386 12.03 12.03 12.03 12.03-5.386 12.03-12.03" fill="#cf154f"/>
</g>
<g transform="translate(133.83 642.18)">
<path d="m0 0c0-6.644-5.386-12.03-12.03-12.03s-12.03 5.386-12.03 12.03 5.386 12.03 12.03 12.03 12.03-5.386 12.03-12.03" fill="#63aea5"/>
</g>
<g transform="translate(24.06 407)">
<path d="m0 0c0-6.644-5.386-12.03-12.03-12.03s-12.03 5.386-12.03 12.03 5.386 12.03 12.03 12.03 12.03-5.386 12.03-12.03" fill="#38aa95"/>
</g>
<g transform="translate(66.917 407)">
<path d="m0 0c0-6.644-5.386-12.03-12.03-12.03s-12.03 5.386-12.03 12.03 5.386 12.03 12.03 12.03 12.03-5.386 12.03-12.03" fill="#bd164e"/>
</g>
<g transform="translate(109.77 407)">
<path d="m0 0c0-6.644-5.386-12.03-12.03-12.03s-12.03 5.386-12.03 12.03 5.386 12.03 12.03 12.03 12.03-5.386 12.03-12.03" fill="#161616"/>
</g>
<g transform="translate(24.06 474.7)">
<path d="m0 0c0-6.644-5.386-12.03-12.03-12.03s-12.03 5.386-12.03 12.03 5.386 12.03 12.03 12.03 12.03-5.386 12.03-12.03" fill="#38aa95"/>
</g>
<g transform="translate(66.917 474.7)">
<path d="m0 0c0-6.644-5.386-12.03-12.03-12.03s-12.03 5.386-12.03 12.03 5.386 12.03 12.03 12.03 12.03-5.386 12.03-12.03" fill="#bd164e"/>
</g>
<g transform="translate(109.77 474.7)">
<path d="m0 0c0-6.644-5.386-12.03-12.03-12.03s-12.03 5.386-12.03 12.03 5.386 12.03 12.03 12.03 12.03-5.386 12.03-12.03" fill="#161616"/>
</g>
<g transform="translate(48.12 439.06)">
<path d="m0 0c0-6.644-5.386-12.03-12.03-12.03s-12.03 5.386-12.03 12.03 5.386 12.03 12.03 12.03 12.03-5.386 12.03-12.03" fill="#707177"/>
</g>
<g transform="translate(90.978 439.06)">
<path d="m0 0c0-6.644-5.386-12.03-12.03-12.03s-12.03 5.386-12.03 12.03 5.386 12.03 12.03 12.03 12.03-5.386 12.03-12.03" fill="#cf154f"/>
</g>
<g transform="translate(133.83 439.06)">
<path d="m0 0c0-6.644-5.386-12.03-12.03-12.03s-12.03 5.386-12.03 12.03 5.386 12.03 12.03 12.03 12.03-5.386 12.03-12.03" fill="#63aea5"/>
</g>
<g transform="translate(48.12 506.76)">
<path d="m0 0c0-6.644-5.386-12.03-12.03-12.03s-12.03 5.386-12.03 12.03 5.386 12.03 12.03 12.03 12.03-5.386 12.03-12.03" fill="#707177"/>
</g>
<g transform="translate(90.978 506.76)">
<path d="m0 0c0-6.644-5.386-12.03-12.03-12.03s-12.03 5.386-12.03 12.03 5.386 12.03 12.03 12.03 12.03-5.386 12.03-12.03" fill="#cf154f"/>
</g>
<g transform="translate(133.83 506.76)">
<path d="m0 0c0-6.644-5.386-12.03-12.03-12.03s-12.03 5.386-12.03 12.03 5.386 12.03 12.03 12.03 12.03-5.386 12.03-12.03" fill="#63aea5"/>
</g>
<g transform="translate(24.06 271.58)">
<path d="m0 0c0-6.644-5.386-12.03-12.03-12.03s-12.03 5.386-12.03 12.03 5.386 12.03 12.03 12.03 12.03-5.386 12.03-12.03" fill="#38aa95"/>
</g>
<g transform="translate(66.917 271.58)">
<path d="m0 0c0-6.644-5.386-12.03-12.03-12.03s-12.03 5.386-12.03 12.03 5.386 12.03 12.03 12.03 12.03-5.386 12.03-12.03" fill="#bd164e"/>
</g>
<g transform="translate(109.77 271.58)">
<path d="m0 0c0-6.644-5.386-12.03-12.03-12.03s-12.03 5.386-12.03 12.03 5.386 12.03 12.03 12.03 12.03-5.386 12.03-12.03" fill="#161616"/>
</g>
<g transform="translate(24.06 339.29)">
<path d="m0 0c0-6.644-5.386-12.03-12.03-12.03s-12.03 5.386-12.03 12.03 5.386 12.03 12.03 12.03 12.03-5.386 12.03-12.03" fill="#38aa95"/>
</g>
<g transform="translate(66.917 339.29)">
<path d="m0 0c0-6.644-5.386-12.03-12.03-12.03s-12.03 5.386-12.03 12.03 5.386 12.03 12.03 12.03 12.03-5.386 12.03-12.03" fill="#bd164e"/>
</g>
<g transform="translate(109.77 339.29)">
<path d="m0 0c0-6.644-5.386-12.03-12.03-12.03s-12.03 5.386-12.03 12.03 5.386 12.03 12.03 12.03 12.03-5.386 12.03-12.03" fill="#161616"/>
</g>
<g transform="translate(48.12 303.64)">
<path d="m0 0c0-6.644-5.386-12.03-12.03-12.03s-12.03 5.386-12.03 12.03 5.386 12.03 12.03 12.03 12.03-5.386 12.03-12.03" fill="#707177"/>
</g>
<g transform="translate(90.978 303.64)">
<path d="m0 0c0-6.644-5.386-12.03-12.03-12.03s-12.03 5.386-12.03 12.03 5.386 12.03 12.03 12.03 12.03-5.386 12.03-12.03" fill="#cf154f"/>
</g>
<g transform="translate(133.83 303.64)">
<path d="m0 0c0-6.644-5.386-12.03-12.03-12.03s-12.03 5.386-12.03 12.03 5.386 12.03 12.03 12.03 12.03-5.386 12.03-12.03" fill="#63aea5"/>
</g>
<g transform="translate(48.12 371.35)">
<path d="m0 0c0-6.644-5.386-12.03-12.03-12.03s-12.03 5.386-12.03 12.03 5.386 12.03 12.03 12.03 12.03-5.386 12.03-12.03" fill="#707177"/>
</g>
<g transform="translate(90.978 371.35)">
<path d="m0 0c0-6.644-5.386-12.03-12.03-12.03s-12.03 5.386-12.03 12.03 5.386 12.03 12.03 12.03 12.03-5.386 12.03-12.03" fill="#cf154f"/>
</g>
<g transform="translate(133.83 371.35)">
<path d="m0 0c0-6.644-5.386-12.03-12.03-12.03s-12.03 5.386-12.03 12.03 5.386 12.03 12.03 12.03 12.03-5.386 12.03-12.03" fill="#63aea5"/>
</g>
<g transform="translate(24.06 136.17)">
<path d="m0 0c0-6.644-5.386-12.03-12.03-12.03s-12.03 5.386-12.03 12.03 5.386 12.03 12.03 12.03 12.03-5.386 12.03-12.03" fill="#38aa95"/>
</g>
<g transform="translate(66.917 136.17)">
<path d="m0 0c0-6.644-5.386-12.03-12.03-12.03s-12.03 5.386-12.03 12.03 5.386 12.03 12.03 12.03 12.03-5.386 12.03-12.03" fill="#bd164e"/>
</g>
<g transform="translate(109.77 136.17)">
<path d="m0 0c0-6.644-5.386-12.03-12.03-12.03s-12.03 5.386-12.03 12.03 5.386 12.03 12.03 12.03 12.03-5.386 12.03-12.03" fill="#161616"/>
</g>
<g transform="translate(24.06 203.88)">
<path d="m0 0c0-6.644-5.386-12.03-12.03-12.03s-12.03 5.386-12.03 12.03 5.386 12.03 12.03 12.03 12.03-5.386 12.03-12.03" fill="#38aa95"/>
</g>
<g transform="translate(66.917 203.88)">
<path d="m0 0c0-6.644-5.386-12.03-12.03-12.03s-12.03 5.386-12.03 12.03 5.386 12.03 12.03 12.03 12.03-5.386 12.03-12.03" fill="#bd164e"/>
</g>
<g transform="translate(109.77 203.88)">
<path d="m0 0c0-6.644-5.386-12.03-12.03-12.03s-12.03 5.386-12.03 12.03 5.386 12.03 12.03 12.03 12.03-5.386 12.03-12.03" fill="#161616"/>
</g>
<g transform="translate(48.12 168.23)">
<path d="m0 0c0-6.644-5.386-12.03-12.03-12.03s-12.03 5.386-12.03 12.03 5.386 12.03 12.03 12.03 12.03-5.386 12.03-12.03" fill="#707177"/>
</g>
<g transform="translate(90.978 168.23)">
<path d="m0 0c0-6.644-5.386-12.03-12.03-12.03s-12.03 5.386-12.03 12.03 5.386 12.03 12.03 12.03 12.03-5.386 12.03-12.03" fill="#cf154f"/>
</g>
<g transform="translate(133.83 168.23)">
<path d="m0 0c0-6.644-5.386-12.03-12.03-12.03s-12.03 5.386-12.03 12.03 5.386 12.03 12.03 12.03 12.03-5.386 12.03-12.03" fill="#63aea5"/>
</g>
<g transform="translate(48.12 235.94)">
<path d="m0 0c0-6.644-5.386-12.03-12.03-12.03s-12.03 5.386-12.03 12.03 5.386 12.03 12.03 12.03 12.03-5.386 12.03-12.03" fill="#707177"/>
</g>
<g transform="translate(90.978 235.94)">
<path d="m0 0c0-6.644-5.386-12.03-12.03-12.03s-12.03 5.386-12.03 12.03 5.386 12.03 12.03 12.03 12.03-5.386 12.03-12.03" fill="#cf154f"/>
</g>
<g transform="translate(133.83 235.94)">
<path d="m0 0c0-6.644-5.386-12.03-12.03-12.03s-12.03 5.386-12.03 12.03 5.386 12.03 12.03 12.03 12.03-5.386 12.03-12.03" fill="#63aea5"/>
</g>
<g transform="translate(24.06 .7558)">
<path d="m0 0c0-6.644-5.386-12.03-12.03-12.03s-12.03 5.386-12.03 12.03 5.386 12.03 12.03 12.03 12.03-5.386 12.03-12.03" fill="#38aa95"/>
</g>
<g transform="translate(66.917 .7558)">
<path d="m0 0c0-6.644-5.386-12.03-12.03-12.03s-12.03 5.386-12.03 12.03 5.386 12.03 12.03 12.03 12.03-5.386 12.03-12.03" fill="#bd164e"/>
</g>
<g transform="translate(109.77 .7558)">
<path d="m0 0c0-6.644-5.386-12.03-12.03-12.03s-12.03 5.386-12.03 12.03 5.386 12.03 12.03 12.03 12.03-5.386 12.03-12.03" fill="#161616"/>
</g>
<g transform="translate(24.06 68.463)">
<path d="m0 0c0-6.644-5.386-12.03-12.03-12.03s-12.03 5.386-12.03 12.03 5.386 12.03 12.03 12.03 12.03-5.386 12.03-12.03" fill="#38aa95"/>
</g>
<g transform="translate(66.917 68.463)">
<path d="m0 0c0-6.644-5.386-12.03-12.03-12.03s-12.03 5.386-12.03 12.03 5.386 12.03 12.03 12.03 12.03-5.386 12.03-12.03" fill="#bd164e"/>
</g>
<g transform="translate(109.77 68.463)">
<path d="m0 0c0-6.644-5.386-12.03-12.03-12.03s-12.03 5.386-12.03 12.03 5.386 12.03 12.03 12.03 12.03-5.386 12.03-12.03" fill="#161616"/>
</g>
<g transform="translate(48.12 32.816)">
<path d="m0 0c0-6.644-5.386-12.03-12.03-12.03s-12.03 5.386-12.03 12.03 5.386 12.03 12.03 12.03 12.03-5.386 12.03-12.03" fill="#707177"/>
</g>
<g transform="translate(90.978 32.816)">
<path d="m0 0c0-6.644-5.386-12.03-12.03-12.03s-12.03 5.386-12.03 12.03 5.386 12.03 12.03 12.03 12.03-5.386 12.03-12.03" fill="#cf154f"/>
</g>
<g transform="translate(133.83 32.816)">
<path d="m0 0c0-6.644-5.386-12.03-12.03-12.03s-12.03 5.386-12.03 12.03 5.386 12.03 12.03 12.03 12.03-5.386 12.03-12.03" fill="#63aea5"/>
</g>
<g transform="translate(48.12 100.52)">
<path d="m0 0c0-6.644-5.386-12.03-12.03-12.03s-12.03 5.386-12.03 12.03 5.386 12.03 12.03 12.03 12.03-5.386 12.03-12.03" fill="#707177"/>
</g>
<g transform="translate(90.978 100.52)">
<path d="m0 0c0-6.644-5.386-12.03-12.03-12.03s-12.03 5.386-12.03 12.03 5.386 12.03 12.03 12.03 12.03-5.386 12.03-12.03" fill="#cf154f"/>
</g>
<g transform="translate(133.83 100.52)">
<path d="m0 0c0-6.644-5.386-12.03-12.03-12.03s-12.03 5.386-12.03 12.03 5.386 12.03 12.03 12.03 12.03-5.386 12.03-12.03" fill="#63aea5"/>
</g>
</g>
</g>
</svg>
