<?xml version="1.0" encoding="UTF-8" standalone="no"?>
<!-- Created with Inkscape (http://www.inkscape.org/) -->

<svg
   width="386.37753mm"
   height="919.06091mm"
   viewBox="0 0 386.37753 919.06091"
   version="1.1"
   id="svg5"
   xml:space="preserve"
   inkscape:version="1.2 (dc2aedaf03, 2022-05-15)"
   sodipodi:docname="push pins.svg"
   xmlns:inkscape="http://www.inkscape.org/namespaces/inkscape"
   xmlns:sodipodi="http://sodipodi.sourceforge.net/DTD/sodipodi-0.dtd"
   xmlns="http://www.w3.org/2000/svg"
   xmlns:svg="http://www.w3.org/2000/svg"><sodipodi:namedview
     id="namedview7"
     pagecolor="#ffffff"
     bordercolor="#000000"
     borderopacity="0.25"
     inkscape:showpageshadow="2"
     inkscape:pageopacity="0.0"
     inkscape:pagecheckerboard="0"
     inkscape:deskcolor="#d1d1d1"
     inkscape:document-units="mm"
     showgrid="false"
     inkscape:zoom="0.037165763"
     inkscape:cx="-3000.073"
     inkscape:cy="3134.6054"
     inkscape:window-width="1920"
     inkscape:window-height="991"
     inkscape:window-x="-9"
     inkscape:window-y="-9"
     inkscape:window-maximized="1"
     inkscape:current-layer="layer1" /><defs
     id="defs2"><linearGradient
       x1="0"
       y1="0"
       x2="1"
       y2="0"
       gradientUnits="userSpaceOnUse"
       gradientTransform="matrix(137.1901,0,0,-137.1901,159.28432,-2353.3859)"
       spreadMethod="pad"
       id="linearGradient7960"><stop
         style="stop-color:#6a6a6a;stop-opacity:1;"
         offset="0"
         id="stop7946" /><stop
         style="stop-color:#7e7e7e;stop-opacity:1;"
         offset="0.37128413"
         id="stop7948" /><stop
         style="stop-color:#ffffff;stop-opacity:1;"
         offset="0.80676764"
         id="stop7954" /><stop
         style="stop-color:#d3d3d3;stop-opacity:1;"
         offset="0.99620491"
         id="stop17687" /></linearGradient><clipPath
       clipPathUnits="userSpaceOnUse"
       id="clipPath7970"><path
         d="m 191.524,291.323 c -3.329,-0.938 -6.305,-2.717 -8.685,-5.094 v 0 c -2.478,-2.477 -4.308,-5.603 -5.214,-9.1 v 0 c -0.415,-1.604 -0.636,-3.285 -0.636,-5.019 v 0 c 0,-5.515 2.235,-10.507 5.85,-14.12 v 0 c 2.38,-2.376 5.356,-4.157 8.685,-5.094 v 0 c 1.724,-0.486 3.542,-0.746 5.424,-0.746 v 0 c 5.511,0 10.501,2.234 14.113,5.846 v 0 c 3.612,3.613 5.845,8.602 5.845,14.114 v 0 c 0,1.733 -0.219,3.413 -0.634,5.017 v 0 c -0.905,3.496 -2.734,6.619 -5.211,9.096 v 0 c -3.612,3.613 -8.602,5.846 -14.113,5.846 v 0 c -1.882,0 -3.7,-0.259 -5.424,-0.746"
         id="path7968" /></clipPath><clipPath
       clipPathUnits="userSpaceOnUse"
       id="clipPath8074"><path
         d="M 0,450 H 450 V 0 H 0 Z"
         id="path8072" /></clipPath><clipPath
       clipPathUnits="userSpaceOnUse"
       id="clipPath8082"><path
         d="m 179.961,288.853 h 27.077 V 262.77 h -27.077 z"
         id="path8080" /></clipPath><clipPath
       clipPathUnits="userSpaceOnUse"
       id="clipPath8086"><path
         d="m 205.193,283.259 c 3.765,-5.911 1.582,-14.039 -4.876,-18.153 -6.459,-4.112 -14.747,-2.653 -18.512,3.256 -3.764,5.913 -1.582,14.04 4.877,18.155 6.458,4.113 14.747,2.653 18.511,-3.258"
         id="path8084" /></clipPath><clipPath
       clipPathUnits="userSpaceOnUse"
       id="clipPath8116"><path
         d="m 184.137,283.529 h 8.265 v -8.176 h -8.265 z"
         id="path8114" /></clipPath><clipPath
       clipPathUnits="userSpaceOnUse"
       id="clipPath8120"><path
         d="m 184.137,283.529 h 8.265 v -8.176 h -8.265 z"
         id="path8118" /></clipPath><clipPath
       clipPathUnits="userSpaceOnUse"
       id="clipPath8124"><path
         d="m 184.21,283.499 h 8.119 v -8.033 h -8.119 z"
         id="path8122" /></clipPath><clipPath
       clipPathUnits="userSpaceOnUse"
       id="clipPath8128"><path
         d="m 184.282,283.47 h 7.974 v -7.89 h -7.974 z"
         id="path8126" /></clipPath><clipPath
       clipPathUnits="userSpaceOnUse"
       id="clipPath8132"><path
         d="m 184.354,283.441 h 7.83 v -7.748 h -7.83 z"
         id="path8130" /></clipPath><clipPath
       clipPathUnits="userSpaceOnUse"
       id="clipPath8136"><path
         d="m 184.427,283.41 h 7.684 v -7.602 h -7.684 z"
         id="path8134" /></clipPath><clipPath
       clipPathUnits="userSpaceOnUse"
       id="clipPath8140"><path
         d="m 184.5,283.381 h 7.539 v -7.46 H 184.5 Z"
         id="path8138" /></clipPath><clipPath
       clipPathUnits="userSpaceOnUse"
       id="clipPath8144"><path
         d="m 184.572,283.351 h 7.394 v -7.316 h -7.394 z"
         id="path8142" /></clipPath><clipPath
       clipPathUnits="userSpaceOnUse"
       id="clipPath8148"><path
         d="m 184.644,283.322 h 7.249 v -7.173 h -7.249 z"
         id="path8146" /></clipPath><clipPath
       clipPathUnits="userSpaceOnUse"
       id="clipPath8152"><path
         d="m 184.717,283.293 h 7.104 v -7.03 h -7.104 z"
         id="path8150" /></clipPath><clipPath
       clipPathUnits="userSpaceOnUse"
       id="clipPath8156"><path
         d="m 184.79,283.262 h 6.959 v -6.886 h -6.959 z"
         id="path8154" /></clipPath><clipPath
       clipPathUnits="userSpaceOnUse"
       id="clipPath8160"><path
         d="m 184.862,283.233 h 6.815 v -6.743 h -6.815 z"
         id="path8158" /></clipPath><clipPath
       clipPathUnits="userSpaceOnUse"
       id="clipPath8164"><path
         d="m 184.935,283.203 h 6.669 v -6.599 h -6.669 z"
         id="path8162" /></clipPath><clipPath
       clipPathUnits="userSpaceOnUse"
       id="clipPath8168"><path
         d="m 185.007,283.174 h 6.524 v -6.457 h -6.524 z"
         id="path8166" /></clipPath><clipPath
       clipPathUnits="userSpaceOnUse"
       id="clipPath8172"><path
         d="m 185.08,283.144 h 6.379 v -6.313 h -6.379 z"
         id="path8170" /></clipPath><clipPath
       clipPathUnits="userSpaceOnUse"
       id="clipPath8176"><path
         d="m 185.153,283.115 h 6.233 v -6.17 h -6.233 z"
         id="path8174" /></clipPath><clipPath
       clipPathUnits="userSpaceOnUse"
       id="clipPath8180"><path
         d="m 185.225,283.086 h 6.089 v -6.027 h -6.089 z"
         id="path8178" /></clipPath><clipPath
       clipPathUnits="userSpaceOnUse"
       id="clipPath8184"><path
         d="m 185.298,283.056 h 5.943 v -5.883 h -5.943 z"
         id="path8182" /></clipPath><clipPath
       clipPathUnits="userSpaceOnUse"
       id="clipPath8188"><path
         d="m 185.371,283.026 h 5.797 v -5.74 h -5.797 z"
         id="path8186" /></clipPath><clipPath
       clipPathUnits="userSpaceOnUse"
       id="clipPath8192"><path
         d="m 185.443,282.997 h 5.653 V 277.4 h -5.653 z"
         id="path8190" /></clipPath><clipPath
       clipPathUnits="userSpaceOnUse"
       id="clipPath8196"><path
         d="m 185.515,282.967 h 5.508 v -5.453 h -5.508 z"
         id="path8194" /></clipPath><clipPath
       clipPathUnits="userSpaceOnUse"
       id="clipPath8200"><path
         d="m 185.588,282.937 h 5.363 v -5.309 h -5.363 z"
         id="path8198" /></clipPath><clipPath
       clipPathUnits="userSpaceOnUse"
       id="clipPath8204"><path
         d="m 185.661,282.907 h 5.218 v -5.166 h -5.218 z"
         id="path8202" /></clipPath><clipPath
       clipPathUnits="userSpaceOnUse"
       id="clipPath8208"><path
         d="m 185.733,282.878 h 5.073 v -5.023 h -5.073 z"
         id="path8206" /></clipPath><clipPath
       clipPathUnits="userSpaceOnUse"
       id="clipPath8212"><path
         d="m 185.806,282.849 h 4.927 v -4.88 h -4.927 z"
         id="path8210" /></clipPath><clipPath
       clipPathUnits="userSpaceOnUse"
       id="clipPath8216"><path
         d="m 185.878,282.819 h 4.783 v -4.736 h -4.783 z"
         id="path8214" /></clipPath><clipPath
       clipPathUnits="userSpaceOnUse"
       id="clipPath8220"><path
         d="m 185.951,282.789 h 4.637 v -4.593 h -4.637 z"
         id="path8218" /></clipPath><clipPath
       clipPathUnits="userSpaceOnUse"
       id="clipPath8224"><path
         d="m 186.023,282.76 h 4.493 v -4.45 h -4.493 z"
         id="path8222" /></clipPath><clipPath
       clipPathUnits="userSpaceOnUse"
       id="clipPath8228"><path
         d="m 186.095,282.73 h 4.348 v -4.306 h -4.348 z"
         id="path8226" /></clipPath><clipPath
       clipPathUnits="userSpaceOnUse"
       id="clipPath8232"><path
         d="m 186.168,282.701 h 4.203 v -4.163 h -4.203 z"
         id="path8230" /></clipPath><clipPath
       clipPathUnits="userSpaceOnUse"
       id="clipPath8236"><path
         d="m 186.241,282.671 h 4.057 v -4.02 h -4.057 z"
         id="path8234" /></clipPath><clipPath
       clipPathUnits="userSpaceOnUse"
       id="clipPath8240"><path
         d="m 186.313,282.642 h 3.913 v -3.877 h -3.913 z"
         id="path8238" /></clipPath><clipPath
       clipPathUnits="userSpaceOnUse"
       id="clipPath8244"><path
         d="m 186.386,282.612 h 3.767 v -3.733 h -3.767 z"
         id="path8242" /></clipPath><filter
       inkscape:collect="always"
       style="color-interpolation-filters:sRGB"
       id="filter15114"
       x="-0.065833516"
       y="-0.068336524"
       width="1.131667"
       height="1.1366606"><feGaussianBlur
         inkscape:collect="always"
         stdDeviation="0.74271642"
         id="feGaussianBlur15116" /></filter><filter
       inkscape:collect="always"
       style="color-interpolation-filters:sRGB"
       id="filter15118"
       x="-0.019528806"
       y="-0.019541364"
       width="1.0390719"
       height="1.0390837"><feGaussianBlur
         inkscape:collect="always"
         stdDeviation="0.32504686"
         id="feGaussianBlur15120" /></filter></defs><g
     inkscape:label="Layer 1"
     inkscape:groupmode="layer"
     id="layer1"
     transform="translate(-107.19525,-387.63732)"><g
       id="g7942"
       transform="matrix(0.35277777,0,0,-0.35277777,220,158.75)"
       inkscape:export-filename="push pin.png"
       inkscape:export-xdpi="96"
       inkscape:export-ydpi="96"><g
         id="g7944"><path
           d="m 159.30629,-3254.0265 h 137.1901 v 1801.3062 h -137.1901 z"
           style="fill:url(#linearGradient7960);stroke:none;stroke-width:27.4379"
           id="path7962"
           inkscape:export-filename="push pin.png"
           inkscape:export-xdpi="96"
           inkscape:export-ydpi="96" /></g></g><g
       id="g7964"
       transform="matrix(9.6795233,0,0,-9.6795233,-1605.9739,3214.726)"
       style="fill:#ff0000"><g
         id="g7966"
         clip-path="url(#clipPath7970)"
         style="fill:#ff0000"><g
           id="g7972"
           style="fill:#ff0000"><g
             id="g7974"
             transform="scale(1,-1)"
             style="fill:#ff0000"><g
               id="g7976"
               style="fill:#ff0000"><path
                 d="m 182.83993,-257.98975 c 1.18944,1.18749 2.5283,2.22654 3.9858,3.08591 -1.21678,-2.51414 -2.19626,-5.34028 -2.87155,-8.29289 -2.01756,-0.22363 -3.91695,-0.54247 -5.39594,-1.14012 1.01122,2.38913 2.47409,4.54048 4.28169,6.3471 z"
                 style="fill:#ff0000;fill-opacity:1;fill-rule:nonzero;stroke:none"
                 id="path7978" /><path
                 d="m 178.55824,-264.33685 c -1.01074,-2.38914 -1.56981,-5.01558 -1.56981,-7.77239 0.88427,0.004 1.83103,-0.0107 2.8237,-0.0361 -9.8e-4,2.83884 0.41748,5.78022 1.24218,8.51896 -0.9121,-0.18262 -1.75633,-0.41162 -2.49607,-0.71044 z"
                 style="fill:#ff0000;fill-opacity:1;fill-rule:nonzero;stroke:none"
                 id="path7980" /><path
                 d="m 181.05431,-263.62641 c -0.8247,-2.73874 -1.24316,-5.68012 -1.24218,-8.51896 0.99315,-0.0249 2.03221,-0.061 3.10104,-0.0996 -0.004,3.01804 0.36621,6.09613 1.04101,9.04825 -1.00878,-0.11181 -1.98777,-0.24755 -2.89987,-0.42968 z"
                 style="fill:#ff0000;fill-opacity:1;fill-rule:nonzero;stroke:none"
                 id="path7982" /><path
                 d="m 186.82573,-254.90384 c -1.21678,-2.51414 -2.19626,-5.34028 -2.87155,-8.29289 1.00927,0.11182 2.04783,0.2002 3.07809,0.28711 0.52539,3.10202 1.25487,6.15521 2.06492,9.15616 -0.78417,-0.33594 -1.54295,-0.7207 -2.27146,-1.15038 z"
                 style="fill:#ff0000;fill-opacity:1;fill-rule:nonzero;stroke:none"
                 id="path7984" /><path
                 d="m 189.09719,-253.75346 c -0.81005,-3.00095 -1.53953,-6.05414 -2.06492,-9.15616 1.03075,0.0869 2.05321,0.17285 3.02976,0.28076 0.33886,3.26266 0.83593,6.51067 1.46141,9.73281 -0.83202,-0.23437 -1.64207,-0.52148 -2.42625,-0.85741 z"
                 style="fill:#ff0000;fill-opacity:1;fill-rule:nonzero;stroke:none"
                 id="path7986" /><path
                 d="m 183.95418,-263.19673 c -0.6748,-2.95212 -1.04491,-6.03021 -1.04101,-9.04825 1.06835,-0.0386 2.16697,-0.0796 3.27829,-0.11621 -0.005,3.19772 0.31543,6.34906 0.84081,9.45157 -1.03026,-0.0869 -2.06882,-0.17529 -3.07809,-0.28711 z"
                 style="fill:#ff0000;fill-opacity:1;fill-rule:nonzero;stroke:none"
                 id="path7988" /><path
                 d="m 187.03227,-262.90962 c -0.52538,-3.10251 -0.84618,-6.25385 -0.84081,-9.45157 1.11181,-0.0361 2.23631,-0.0674 3.35788,-0.0859 -0.007,3.27926 0.17382,6.55608 0.51269,9.81826 -0.97655,-0.10791 -1.99901,-0.19385 -3.02976,-0.28076 z"
                 style="fill:#ff0000;fill-opacity:1;fill-rule:nonzero;stroke:none"
                 id="path7990" /><path
                 d="m 176.98843,-272.10924 c 0,-1.73436 0.22168,-3.41598 0.63671,-5.01948 0.84081,-0.13916 1.75242,-0.2915 2.71384,-0.44433 -0.37548,1.67674 -0.52587,3.64059 -0.52685,5.42768 -0.99267,0.0254 -1.93943,0.04 -2.8237,0.0361 z"
                 style="fill:#ff0000;fill-opacity:1;fill-rule:nonzero;stroke:none"
                 id="path7992" /><path
                 d="m 179.81213,-272.14537 c 9.8e-4,-1.78709 0.15137,-3.75094 0.52685,-5.42768 0.96191,-0.15283 1.97361,-0.30664 3.01511,-0.45019 -0.28857,1.83738 -0.43896,3.87496 -0.44092,5.77826 -1.06883,0.0386 -2.10789,0.0747 -3.10104,0.0996 z"
                 style="fill:#ff0000;fill-opacity:1;fill-rule:nonzero;stroke:none"
                 id="path7994" /><path
                 d="m 182.91317,-272.24498 c 0.002,-1.9033 0.15235,-3.94088 0.44092,-5.77826 1.04149,-0.14307 2.11277,-0.27588 3.19284,-0.38672 -0.20117,1.99803 -0.35156,4.02926 -0.35547,6.04877 -1.11132,0.0366 -2.20994,0.0776 -3.27829,0.11621 z"
                 style="fill:#ff0000;fill-opacity:1;fill-rule:nonzero;stroke:none"
                 id="path7996" /><path
                 d="m 186.19146,-272.36119 c 0.004,-2.01951 0.1543,-4.05074 0.35547,-6.04877 1.08055,-0.11083 2.1699,-0.1997 3.24801,-0.25488 -0.16162,2.07127 -0.24121,4.14498 -0.2456,6.21772 -1.12157,0.0186 -2.24607,0.0498 -3.35788,0.0859 z"
                 style="fill:#ff0000;fill-opacity:1;fill-rule:nonzero;stroke:none"
                 id="path7998" /><path
                 d="m 191.52344,-252.89605 c 1.72459,0.48632 3.54293,0.74609 5.42475,0.74609 -0.0557,-3.18942 -0.10351,-6.48627 -0.14844,-9.85391 -2.13279,-0.021 -4.69575,-0.35009 -6.73772,-0.6245 0.33886,3.26217 0.83593,6.51067 1.46141,9.73232 z"
                 style="fill:#ff0000;fill-opacity:1;fill-rule:nonzero;stroke:none"
                 id="path8000" /><path
                 d="m 190.06203,-262.62837 c 2.04197,0.27441 4.60493,0.60351 6.73772,0.6245 -0.0454,-3.36813 -0.0884,-6.80706 -0.1333,-10.28115 -2.38376,-0.0425 -4.75776,-0.0991 -7.11711,-0.16162 -0.007,3.27878 0.17382,6.5556 0.51269,9.81827 z"
                 style="fill:#ff0000;fill-opacity:1;fill-rule:nonzero;stroke:none"
                 id="path8002" /><path
                 d="m 196.94819,-252.14996 c 2.75534,0 5.38032,-0.55859 7.76848,-1.56884 0.87548,-2.49753 1.44871,-5.55365 1.79783,-8.76407 -3.22409,0.37012 -6.59661,0.50976 -9.71475,0.479 0.0449,3.36764 0.0928,6.66449 0.14844,9.85391 z"
                 style="fill:#ff0000;fill-opacity:1;fill-rule:nonzero;stroke:none"
                 id="path8004" /><path
                 d="m 196.79975,-262.00387 c 3.11814,0.0308 6.49066,-0.10888 9.71475,-0.479 0.34863,-3.20993 0.47314,-6.57464 0.45019,-9.68936 -3.37887,-0.0215 -6.81731,-0.0513 -10.29824,-0.11279 0.0449,3.47409 0.0879,6.91302 0.1333,10.28115 z"
                 style="fill:#ff0000;fill-opacity:1;fill-rule:nonzero;stroke:none"
                 id="path8006" /><path
                 d="m 204.71667,-253.7188 c 2.38767,-1.00975 4.53804,-2.47116 6.34368,-4.27681 1.80663,-1.80662 3.26804,-3.95699 4.27779,-6.34515 -2.52438,0.88866 -5.60004,1.48827 -8.82364,1.85789 -0.34912,3.21042 -0.92235,6.26654 -1.79783,8.76407 z"
                 style="fill:#ff0000;fill-opacity:1;fill-rule:nonzero;stroke:none"
                 id="path8008" /><path
                 d="m 206.5145,-262.48287 c 3.2236,-0.36962 6.29926,-0.96923 8.82364,-1.85789 1.00976,-2.38767 1.56786,-5.01265 1.56786,-7.76848 -3.24313,-0.0288 -6.56243,-0.0415 -9.94131,-0.063 0.023,3.11472 -0.10156,6.47943 -0.45019,9.68936 z"
                 style="fill:#ff0000;fill-opacity:1;fill-rule:nonzero;stroke:none"
                 id="path8010" /><path
                 d="m 189.54934,-272.44664 c 2.35935,0.0625 4.73335,0.11914 7.11711,0.16162 -0.0288,-2.19382 -0.0576,-4.37495 -0.0752,-6.53509 -2.2573,-0.0117 -4.52144,0.04 -6.79632,0.15527 -0.16162,2.07176 -0.24121,4.14547 -0.2456,6.2182 z"
                 style="fill:#ff0000;fill-opacity:1;fill-rule:nonzero;stroke:none"
                 id="path8012" /><path
                 d="m 196.66645,-272.28502 c -0.0288,-2.19382 -0.0576,-4.37495 -0.0752,-6.53509 3.2944,0.0171 6.57367,0.16846 9.85,0.45117 0.21582,1.88182 0.50927,4.23287 0.52343,6.19671 -3.37887,-0.0215 -6.81731,-0.0513 -10.29824,-0.11279 z"
                 style="fill:#ff0000;fill-opacity:1;fill-rule:nonzero;stroke:none"
                 id="path8014" /><path
                 d="m 206.96469,-272.17223 c -0.0142,-1.96384 -0.30761,-4.31489 -0.52343,-6.19671 3.27585,0.2832 6.54876,0.69823 9.82998,1.24217 0.41504,1.6035 0.63476,3.28415 0.63476,5.01753 -3.24313,-0.0288 -6.56243,-0.0415 -9.94131,-0.063 z"
                 style="fill:#ff0000;fill-opacity:1;fill-rule:nonzero;stroke:none"
                 id="path8016" /><path
                 d="m 177.62514,-277.12872 c 0.84081,-0.13916 1.75242,-0.2915 2.71384,-0.44433 0.20556,-0.92187 0.4458,-1.86375 0.7246,-2.7988 -0.91796,0.24511 -1.78758,0.48388 -2.58982,0.69433 -0.33788,0.82323 -0.62206,1.6743 -0.84862,2.5488 z"
                 style="fill:#ff0000;fill-opacity:1;fill-rule:nonzero;stroke:none"
                 id="path8018" /><path
                 d="m 178.47376,-279.67752 c 0.80224,-0.21045 1.67186,-0.44922 2.58982,-0.69433 0.27881,-0.93505 0.59619,-1.86375 0.95702,-2.75925 -0.85839,0.34277 -1.65965,0.70312 -2.3779,1.06981 -0.43994,0.76416 -0.83105,1.56005 -1.16894,2.38377 z"
                 style="fill:#ff0000;fill-opacity:1;fill-rule:nonzero;stroke:none"
                 id="path8020" /><path
                 d="m 180.33898,-277.57305 c 0.96191,-0.15283 1.97361,-0.30664 3.01511,-0.45019 0.15918,-1.02636 0.35742,-2.06053 0.58984,-3.08005 -0.99609,0.23535 -1.96239,0.48632 -2.88035,0.73144 -0.2788,0.93505 -0.51904,1.87693 -0.7246,2.7988 z"
                 style="fill:#ff0000;fill-opacity:1;fill-rule:nonzero;stroke:none"
                 id="path8022" /><path
                 d="m 181.06358,-280.37185 c 0.91796,-0.24512 1.88426,-0.49609 2.88035,-0.73144 0.23241,-1.01952 0.49853,-2.02488 0.79442,-2.9946 -0.94481,0.29834 -1.85936,0.62402 -2.71775,0.96679 -0.36083,0.8955 -0.67821,1.8242 -0.95702,2.75925 z"
                 style="fill:#ff0000;fill-opacity:1;fill-rule:nonzero;stroke:none"
                 id="path8024" /><path
                 d="m 179.6427,-282.06129 c 0.88085,-1.5283 1.95799,-2.92868 3.19723,-4.16695 0.59472,-0.59423 1.22655,-1.15135 1.89256,-1.66697 -1.09813,1.31444 -1.9907,2.97311 -2.71189,4.76411 -0.85839,0.34277 -1.65965,0.70312 -2.3779,1.06981 z"
                 style="fill:#ff0000;fill-opacity:1;fill-rule:nonzero;stroke:none"
                 id="path8026" /><path
                 d="m 182.0206,-283.1311 c 0.72119,-1.791 1.61376,-3.44967 2.71189,-4.76411 0.66552,-0.51562 1.36473,-0.99023 2.09324,-1.41991 -0.7871,1.48192 -1.49559,3.27829 -2.08738,5.21723 -0.94481,0.29834 -1.85936,0.62402 -2.71775,0.96679 z"
                 style="fill:#ff0000;fill-opacity:1;fill-rule:nonzero;stroke:none"
                 id="path8028" /><path
                 d="m 183.35409,-278.02324 c 1.04149,-0.14307 2.11277,-0.27588 3.19284,-0.38672 0.11279,-1.13182 0.26904,-2.2446 0.45507,-3.32955 -1.03661,0.18164 -2.06199,0.40087 -3.05807,0.63622 -0.23242,1.01952 -0.43066,2.05369 -0.58984,3.08005 z"
                 style="fill:#ff0000;fill-opacity:1;fill-rule:nonzero;stroke:none"
                 id="path8030" /><path
                 d="m 183.94393,-281.10329 c 0.99608,-0.23535 2.02146,-0.45458 3.05807,-0.63622 0.18603,-1.08446 0.40136,-2.14061 0.63232,-3.15817 -0.97704,0.23193 -1.95115,0.50194 -2.89597,0.79979 -0.29589,0.96972 -0.56201,1.97508 -0.79442,2.9946 z"
                 style="fill:#ff0000;fill-opacity:1;fill-rule:nonzero;stroke:none"
                 id="path8032" /><path
                 d="m 186.54693,-278.40996 c 1.08055,-0.11083 2.1699,-0.1997 3.24801,-0.25488 0.0918,-1.17918 0.20361,-2.34421 0.33056,-3.48238 -1.03954,0.083 -2.08689,0.22656 -3.1235,0.40771 -0.18603,1.08495 -0.34228,2.19773 -0.45507,3.32955 z"
                 style="fill:#ff0000;fill-opacity:1;fill-rule:nonzero;stroke:none"
                 id="path8034" /><path
                 d="m 187.002,-281.73951 c 1.03661,-0.18115 2.08396,-0.32471 3.1235,-0.40771 0.12696,-1.13818 0.26904,-2.24949 0.41992,-3.32126 -0.95507,0.14502 -1.93455,0.33838 -2.9111,0.5708 -0.23096,1.01756 -0.44629,2.07371 -0.63232,3.15817 z"
                 style="fill:#ff0000;fill-opacity:1;fill-rule:nonzero;stroke:none"
                 id="path8036" /><path
                 d="m 184.73835,-284.09789 c 0.94482,-0.29785 1.91893,-0.56786 2.89597,-0.79979 0.23095,-1.01806 0.47753,-1.99754 0.72607,-2.92869 -0.89502,0.27832 -1.78807,0.59375 -2.65183,0.94872 -0.34912,0.87646 -0.67431,1.81053 -0.97021,2.77976 z"
                 style="fill:#ff0000;fill-opacity:1;fill-rule:nonzero;stroke:none"
                 id="path8038" /><path
                 d="m 185.70856,-286.87765 c 0.86376,-0.35497 1.75681,-0.6704 2.65183,-0.94872 0.24853,-0.93114 0.49853,-1.81394 0.7368,-2.63864 -0.78417,0.33593 -1.54295,0.72021 -2.27146,1.14989 -0.39355,0.7412 -0.76757,1.56053 -1.11717,2.43747 z"
                 style="fill:#ff0000;fill-opacity:1;fill-rule:nonzero;stroke:none"
                 id="path8040" /><path
                 d="m 187.63432,-284.89768 c 0.97655,-0.23242 1.95603,-0.42578 2.9111,-0.5708 0.15137,-1.07177 0.31201,-2.10398 0.47705,-3.08395 -0.8706,0.20654 -1.76707,0.44775 -2.66208,0.72606 -0.24854,0.93115 -0.49512,1.91063 -0.72607,2.92869 z"
                 style="fill:#ff0000;fill-opacity:1;fill-rule:nonzero;stroke:none"
                 id="path8042" /><path
                 d="m 188.36039,-287.82637 c 0.89501,-0.27831 1.79148,-0.51952 2.66208,-0.72606 0.16455,-0.97997 0.33349,-1.9077 0.50097,-2.77048 -0.83202,0.23486 -1.64207,0.52196 -2.42625,0.8579 -0.23827,0.8247 -0.48827,1.7075 -0.7368,2.63864 z"
                 style="fill:#ff0000;fill-opacity:1;fill-rule:nonzero;stroke:none"
                 id="path8044" /><path
                 d="m 189.79494,-278.66484 c 2.27488,-0.11523 4.53902,-0.16699 6.79583,-0.15527 0.0444,-1.22606 0.0884,-2.43601 0.13037,-3.61861 -2.19871,-0.01 -4.40669,0.11816 -6.59564,0.2915 -0.12695,1.13817 -0.23876,2.3032 -0.33056,3.48238 z"
                 style="fill:#ff0000;fill-opacity:1;fill-rule:nonzero;stroke:none"
                 id="path8046" /><path
                 d="m 190.1255,-282.14722 c 2.18895,-0.17334 4.39693,-0.30127 6.59564,-0.2915 0.0415,-1.1831 0.0806,-2.33885 0.11426,-3.457 -2.06932,-0.006 -4.29,0.12646 -6.28998,0.42724 -0.15088,1.07177 -0.29296,2.18308 -0.41992,3.32126 z"
                 style="fill:#ff0000;fill-opacity:1;fill-rule:nonzero;stroke:none"
                 id="path8048" /><path
                 d="m 190.54542,-285.46848 c 1.99998,-0.30078 4.22066,-0.4331 6.28998,-0.42724 0.0337,-1.11815 0.062,-2.19871 0.0815,-3.23093 -1.94041,-0.002 -4.08394,0.146 -5.89447,0.57422 -0.16504,0.97997 -0.32568,2.01218 -0.47705,3.08395 z"
                 style="fill:#ff0000;fill-opacity:1;fill-rule:nonzero;stroke:none"
                 id="path8050" /><path
                 d="m 191.02247,-288.55243 c 1.81053,-0.42822 3.95406,-0.57617 5.89447,-0.57422 0.02,-1.03221 0.0312,-2.01658 0.0312,-2.94235 -1.88182,0 -3.70016,0.25976 -5.42475,0.74609 -0.16748,0.86278 -0.33642,1.79051 -0.50097,2.77048 z"
                 style="fill:#ff0000;fill-opacity:1;fill-rule:nonzero;stroke:none"
                 id="path8052" /><path
                 d="m 196.59077,-278.82011 c 3.29489,0.0171 6.57416,0.16846 9.85049,0.45117 -0.0913,-1.0498 -0.16699,-2.14012 -0.24902,-3.23337 -3.11081,-0.50195 -6.26117,-0.82225 -9.4711,-0.83641 -0.042,1.1826 -0.0859,2.39255 -0.13037,3.61861 z"
                 style="fill:#ff0000;fill-opacity:1;fill-rule:nonzero;stroke:none"
                 id="path8054" /><path
                 d="m 196.72114,-282.43872 c 3.20993,0.0142 6.36029,0.33446 9.4711,0.83641 -0.082,-1.09276 -0.16992,-2.18845 -0.28564,-3.24899 -2.96286,-0.66405 -6.04633,-1.03563 -9.0712,-1.04442 -0.0337,1.11815 -0.0727,2.2739 -0.11426,3.457 z"
                 style="fill:#ff0000;fill-opacity:1;fill-rule:nonzero;stroke:none"
                 id="path8056" /><path
                 d="m 196.8354,-285.89572 c 3.02487,0.009 6.10834,0.38037 9.0712,1.04442 -0.11524,-1.06102 -0.25781,-2.08689 -0.44922,-3.04098 -2.74997,-0.81689 -5.70062,-1.23193 -8.54044,-1.23437 -0.0195,1.03222 -0.0479,2.11278 -0.0815,3.23093 z"
                 style="fill:#ff0000;fill-opacity:1;fill-rule:nonzero;stroke:none"
                 id="path8058" /><path
                 d="m 196.91694,-289.12665 c 2.83982,0.002 5.79047,0.41748 8.54044,1.23437 -0.1914,-0.9541 -0.43114,-1.83592 -0.74071,-2.60838 -2.38816,-1.00975 -5.01314,-1.56834 -7.76848,-1.56834 0,0.92577 -0.0112,1.91014 -0.0312,2.94235 z"
                 style="fill:#ff0000;fill-opacity:1;fill-rule:nonzero;stroke:none"
                 id="path8060" /><path
                 d="m 206.44126,-278.36894 c 3.27585,0.2832 6.54876,0.69823 9.82998,1.24217 -0.22607,-0.87401 -0.50976,-1.72459 -0.84716,-2.54782 -3.05075,-0.74121 -6.12152,-1.42528 -9.23184,-1.92772 0.082,1.09325 0.15771,2.18357 0.24902,3.23337 z"
                 style="fill:#ff0000;fill-opacity:1;fill-rule:nonzero;stroke:none"
                 id="path8062" /><path
                 d="m 206.19224,-281.60231 c 3.11032,0.50244 6.18109,1.18651 9.23184,1.92772 -0.3374,-0.82324 -0.72851,-1.61864 -1.16844,-2.3823 -2.54344,-1.17528 -5.38569,-2.13084 -8.34904,-2.79441 0.11572,1.06054 0.20361,2.15623 0.28564,3.24899 z"
                 style="fill:#ff0000;fill-opacity:1;fill-rule:nonzero;stroke:none"
                 id="path8064" /><path
                 d="m 205.9066,-284.8513 c 2.96335,0.66357 5.8056,1.61913 8.34904,2.79441 -0.87988,-1.52733 -1.95653,-2.92722 -3.19529,-4.16549 -1.80564,-1.80662 -3.95601,-3.26803 -6.34368,-4.27828 0.61913,1.54491 0.95946,3.5278 1.18993,5.64936 z"
                 style="fill:#ff0000;fill-opacity:1;fill-rule:nonzero;stroke:none"
                 id="path8066" /></g></g></g></g></g><g
       id="g15012"
       transform="matrix(9.6795233,0,0,-9.6795233,-1605.9739,3214.726)"
       style="fill:#d40000"><g
         id="g15010"
         clip-path="url(#clipPath7970)"
         style="fill:#d40000"><g
           id="g15008"
           style="fill:#d40000"><g
             id="g15006"
             transform="scale(1,-1)"
             style="fill:#d40000"><g
               id="g15004"
               style="fill:#d40000"><path
                 d="m 182.83993,-257.98975 c 1.18944,1.18749 2.5283,2.22654 3.9858,3.08591 -1.21678,-2.51414 -2.19626,-5.34028 -2.87155,-8.29289 -2.01756,-0.22363 -3.91695,-0.54247 -5.39594,-1.14012 1.01122,2.38913 2.47409,4.54048 4.28169,6.3471 z"
                 style="fill:#d40000;fill-opacity:1;fill-rule:nonzero;stroke:none"
                 id="path14914" /><path
                 d="m 178.55824,-264.33685 c -1.01074,-2.38914 -1.56981,-5.01558 -1.56981,-7.77239 0.88427,0.004 1.83103,-0.0107 2.8237,-0.0361 -9.8e-4,2.83884 0.41748,5.78022 1.24218,8.51896 -0.9121,-0.18262 -1.75633,-0.41162 -2.49607,-0.71044 z"
                 style="fill:#d40000;fill-opacity:1;fill-rule:nonzero;stroke:none"
                 id="path14916" /><path
                 d="m 181.05431,-263.62641 c -0.8247,-2.73874 -1.24316,-5.68012 -1.24218,-8.51896 0.99315,-0.0249 2.03221,-0.061 3.10104,-0.0996 -0.004,3.01804 0.36621,6.09613 1.04101,9.04825 -1.00878,-0.11181 -1.98777,-0.24755 -2.89987,-0.42968 z"
                 style="fill:#d40000;fill-opacity:1;fill-rule:nonzero;stroke:none"
                 id="path14918" /><path
                 d="m 186.82573,-254.90384 c -1.21678,-2.51414 -2.19626,-5.34028 -2.87155,-8.29289 1.00927,0.11182 2.04783,0.2002 3.07809,0.28711 0.52539,3.10202 1.25487,6.15521 2.06492,9.15616 -0.78417,-0.33594 -1.54295,-0.7207 -2.27146,-1.15038 z"
                 style="fill:#d40000;fill-opacity:1;fill-rule:nonzero;stroke:none"
                 id="path14920" /><path
                 d="m 189.09719,-253.75346 c -0.81005,-3.00095 -1.53953,-6.05414 -2.06492,-9.15616 1.03075,0.0869 2.05321,0.17285 3.02976,0.28076 0.33886,3.26266 0.83593,6.51067 1.46141,9.73281 -0.83202,-0.23437 -1.64207,-0.52148 -2.42625,-0.85741 z"
                 style="fill:#d40000;fill-opacity:1;fill-rule:nonzero;stroke:none"
                 id="path14922" /><path
                 d="m 183.95418,-263.19673 c -0.6748,-2.95212 -1.04491,-6.03021 -1.04101,-9.04825 1.06835,-0.0386 2.16697,-0.0796 3.27829,-0.11621 -0.005,3.19772 0.31543,6.34906 0.84081,9.45157 -1.03026,-0.0869 -2.06882,-0.17529 -3.07809,-0.28711 z"
                 style="fill:#d40000;fill-opacity:1;fill-rule:nonzero;stroke:none"
                 id="path14924" /><path
                 d="m 187.03227,-262.90962 c -0.52538,-3.10251 -0.84618,-6.25385 -0.84081,-9.45157 1.11181,-0.0361 2.23631,-0.0674 3.35788,-0.0859 -0.007,3.27926 0.17382,6.55608 0.51269,9.81826 -0.97655,-0.10791 -1.99901,-0.19385 -3.02976,-0.28076 z"
                 style="fill:#d40000;fill-opacity:1;fill-rule:nonzero;stroke:none"
                 id="path14926" /><path
                 d="m 176.98843,-272.10924 c 0,-1.73436 0.22168,-3.41598 0.63671,-5.01948 0.84081,-0.13916 1.75242,-0.2915 2.71384,-0.44433 -0.37548,1.67674 -0.52587,3.64059 -0.52685,5.42768 -0.99267,0.0254 -1.93943,0.04 -2.8237,0.0361 z"
                 style="fill:#d40000;fill-opacity:1;fill-rule:nonzero;stroke:none"
                 id="path14928" /><path
                 d="m 179.81213,-272.14537 c 9.8e-4,-1.78709 0.15137,-3.75094 0.52685,-5.42768 0.96191,-0.15283 1.97361,-0.30664 3.01511,-0.45019 -0.28857,1.83738 -0.43896,3.87496 -0.44092,5.77826 -1.06883,0.0386 -2.10789,0.0747 -3.10104,0.0996 z"
                 style="fill:#d40000;fill-opacity:1;fill-rule:nonzero;stroke:none"
                 id="path14930" /><path
                 d="m 182.91317,-272.24498 c 0.002,-1.9033 0.15235,-3.94088 0.44092,-5.77826 1.04149,-0.14307 2.11277,-0.27588 3.19284,-0.38672 -0.20117,1.99803 -0.35156,4.02926 -0.35547,6.04877 -1.11132,0.0366 -2.20994,0.0776 -3.27829,0.11621 z"
                 style="fill:#d40000;fill-opacity:1;fill-rule:nonzero;stroke:none"
                 id="path14932" /><path
                 d="m 186.19146,-272.36119 c 0.004,-2.01951 0.1543,-4.05074 0.35547,-6.04877 1.08055,-0.11083 2.1699,-0.1997 3.24801,-0.25488 -0.16162,2.07127 -0.24121,4.14498 -0.2456,6.21772 -1.12157,0.0186 -2.24607,0.0498 -3.35788,0.0859 z"
                 style="fill:#d40000;fill-opacity:1;fill-rule:nonzero;stroke:none"
                 id="path14934" /><path
                 d="m 191.52344,-252.89605 c 1.72459,0.48632 3.54293,0.74609 5.42475,0.74609 -0.0557,-3.18942 -0.10351,-6.48627 -0.14844,-9.85391 -2.13279,-0.021 -4.69575,-0.35009 -6.73772,-0.6245 0.33886,3.26217 0.83593,6.51067 1.46141,9.73232 z"
                 style="fill:#d40000;fill-opacity:1;fill-rule:nonzero;stroke:none"
                 id="path14936" /><path
                 d="m 190.06203,-262.62837 c 2.04197,0.27441 4.60493,0.60351 6.73772,0.6245 -0.0454,-3.36813 -0.0884,-6.80706 -0.1333,-10.28115 -2.38376,-0.0425 -4.75776,-0.0991 -7.11711,-0.16162 -0.007,3.27878 0.17382,6.5556 0.51269,9.81827 z"
                 style="fill:#d40000;fill-opacity:1;fill-rule:nonzero;stroke:none"
                 id="path14938" /><path
                 d="m 196.94819,-252.14996 c 2.75534,0 5.38032,-0.55859 7.76848,-1.56884 0.87548,-2.49753 1.44871,-5.55365 1.79783,-8.76407 -3.22409,0.37012 -6.59661,0.50976 -9.71475,0.479 0.0449,3.36764 0.0928,6.66449 0.14844,9.85391 z"
                 style="fill:#d40000;fill-opacity:1;fill-rule:nonzero;stroke:none"
                 id="path14940" /><path
                 d="m 196.79975,-262.00387 c 3.11814,0.0308 6.49066,-0.10888 9.71475,-0.479 0.34863,-3.20993 0.47314,-6.57464 0.45019,-9.68936 -3.37887,-0.0215 -6.81731,-0.0513 -10.29824,-0.11279 0.0449,3.47409 0.0879,6.91302 0.1333,10.28115 z"
                 style="fill:#d40000;fill-opacity:1;fill-rule:nonzero;stroke:none"
                 id="path14942" /><path
                 d="m 204.71667,-253.7188 c 2.38767,-1.00975 4.53804,-2.47116 6.34368,-4.27681 1.80663,-1.80662 3.26804,-3.95699 4.27779,-6.34515 -2.52438,0.88866 -5.60004,1.48827 -8.82364,1.85789 -0.34912,3.21042 -0.92235,6.26654 -1.79783,8.76407 z"
                 style="fill:#d40000;fill-opacity:1;fill-rule:nonzero;stroke:none"
                 id="path14944" /><path
                 d="m 206.5145,-262.48287 c 3.2236,-0.36962 6.29926,-0.96923 8.82364,-1.85789 1.00976,-2.38767 1.56786,-5.01265 1.56786,-7.76848 -3.24313,-0.0288 -6.56243,-0.0415 -9.94131,-0.063 0.023,3.11472 -0.10156,6.47943 -0.45019,9.68936 z"
                 style="fill:#d40000;fill-opacity:1;fill-rule:nonzero;stroke:none"
                 id="path14946" /><path
                 d="m 189.54934,-272.44664 c 2.35935,0.0625 4.73335,0.11914 7.11711,0.16162 -0.0288,-2.19382 -0.0576,-4.37495 -0.0752,-6.53509 -2.2573,-0.0117 -4.52144,0.04 -6.79632,0.15527 -0.16162,2.07176 -0.24121,4.14547 -0.2456,6.2182 z"
                 style="fill:#d40000;fill-opacity:1;fill-rule:nonzero;stroke:none"
                 id="path14948" /><path
                 d="m 196.66645,-272.28502 c -0.0288,-2.19382 -0.0576,-4.37495 -0.0752,-6.53509 3.2944,0.0171 6.57367,0.16846 9.85,0.45117 0.21582,1.88182 0.50927,4.23287 0.52343,6.19671 -3.37887,-0.0215 -6.81731,-0.0513 -10.29824,-0.11279 z"
                 style="fill:#d40000;fill-opacity:1;fill-rule:nonzero;stroke:none"
                 id="path14950" /><path
                 d="m 206.96469,-272.17223 c -0.0142,-1.96384 -0.30761,-4.31489 -0.52343,-6.19671 3.27585,0.2832 6.54876,0.69823 9.82998,1.24217 0.41504,1.6035 0.63476,3.28415 0.63476,5.01753 -3.24313,-0.0288 -6.56243,-0.0415 -9.94131,-0.063 z"
                 style="fill:#d40000;fill-opacity:1;fill-rule:nonzero;stroke:none"
                 id="path14952" /><path
                 d="m 177.62514,-277.12872 c 0.84081,-0.13916 1.75242,-0.2915 2.71384,-0.44433 0.20556,-0.92187 0.4458,-1.86375 0.7246,-2.7988 -0.91796,0.24511 -1.78758,0.48388 -2.58982,0.69433 -0.33788,0.82323 -0.62206,1.6743 -0.84862,2.5488 z"
                 style="fill:#d40000;fill-opacity:1;fill-rule:nonzero;stroke:none"
                 id="path14954" /><path
                 d="m 178.47376,-279.67752 c 0.80224,-0.21045 1.67186,-0.44922 2.58982,-0.69433 0.27881,-0.93505 0.59619,-1.86375 0.95702,-2.75925 -0.85839,0.34277 -1.65965,0.70312 -2.3779,1.06981 -0.43994,0.76416 -0.83105,1.56005 -1.16894,2.38377 z"
                 style="fill:#d40000;fill-opacity:1;fill-rule:nonzero;stroke:none"
                 id="path14956" /><path
                 d="m 180.33898,-277.57305 c 0.96191,-0.15283 1.97361,-0.30664 3.01511,-0.45019 0.15918,-1.02636 0.35742,-2.06053 0.58984,-3.08005 -0.99609,0.23535 -1.96239,0.48632 -2.88035,0.73144 -0.2788,0.93505 -0.51904,1.87693 -0.7246,2.7988 z"
                 style="fill:#d40000;fill-opacity:1;fill-rule:nonzero;stroke:none"
                 id="path14958" /><path
                 d="m 181.06358,-280.37185 c 0.91796,-0.24512 1.88426,-0.49609 2.88035,-0.73144 0.23241,-1.01952 0.49853,-2.02488 0.79442,-2.9946 -0.94481,0.29834 -1.85936,0.62402 -2.71775,0.96679 -0.36083,0.8955 -0.67821,1.8242 -0.95702,2.75925 z"
                 style="fill:#d40000;fill-opacity:1;fill-rule:nonzero;stroke:none"
                 id="path14960" /><path
                 d="m 179.6427,-282.06129 c 0.88085,-1.5283 1.95799,-2.92868 3.19723,-4.16695 0.59472,-0.59423 1.22655,-1.15135 1.89256,-1.66697 -1.09813,1.31444 -1.9907,2.97311 -2.71189,4.76411 -0.85839,0.34277 -1.65965,0.70312 -2.3779,1.06981 z"
                 style="fill:#d40000;fill-opacity:1;fill-rule:nonzero;stroke:none"
                 id="path14962" /><path
                 d="m 182.0206,-283.1311 c 0.72119,-1.791 1.61376,-3.44967 2.71189,-4.76411 0.66552,-0.51562 1.36473,-0.99023 2.09324,-1.41991 -0.7871,1.48192 -1.49559,3.27829 -2.08738,5.21723 -0.94481,0.29834 -1.85936,0.62402 -2.71775,0.96679 z"
                 style="fill:#d40000;fill-opacity:1;fill-rule:nonzero;stroke:none"
                 id="path14964" /><path
                 d="m 183.35409,-278.02324 c 1.04149,-0.14307 2.11277,-0.27588 3.19284,-0.38672 0.11279,-1.13182 0.26904,-2.2446 0.45507,-3.32955 -1.03661,0.18164 -2.06199,0.40087 -3.05807,0.63622 -0.23242,1.01952 -0.43066,2.05369 -0.58984,3.08005 z"
                 style="fill:#d40000;fill-opacity:1;fill-rule:nonzero;stroke:none"
                 id="path14966" /><path
                 d="m 183.94393,-281.10329 c 0.99608,-0.23535 2.02146,-0.45458 3.05807,-0.63622 0.18603,-1.08446 0.40136,-2.14061 0.63232,-3.15817 -0.97704,0.23193 -1.95115,0.50194 -2.89597,0.79979 -0.29589,0.96972 -0.56201,1.97508 -0.79442,2.9946 z"
                 style="fill:#d40000;fill-opacity:1;fill-rule:nonzero;stroke:none"
                 id="path14968" /><path
                 d="m 186.54693,-278.40996 c 1.08055,-0.11083 2.1699,-0.1997 3.24801,-0.25488 0.0918,-1.17918 0.20361,-2.34421 0.33056,-3.48238 -1.03954,0.083 -2.08689,0.22656 -3.1235,0.40771 -0.18603,1.08495 -0.34228,2.19773 -0.45507,3.32955 z"
                 style="fill:#d40000;fill-opacity:1;fill-rule:nonzero;stroke:none"
                 id="path14970" /><path
                 d="m 187.002,-281.73951 c 1.03661,-0.18115 2.08396,-0.32471 3.1235,-0.40771 0.12696,-1.13818 0.26904,-2.24949 0.41992,-3.32126 -0.95507,0.14502 -1.93455,0.33838 -2.9111,0.5708 -0.23096,1.01756 -0.44629,2.07371 -0.63232,3.15817 z"
                 style="fill:#d40000;fill-opacity:1;fill-rule:nonzero;stroke:none"
                 id="path14972" /><path
                 d="m 184.73835,-284.09789 c 0.94482,-0.29785 1.91893,-0.56786 2.89597,-0.79979 0.23095,-1.01806 0.47753,-1.99754 0.72607,-2.92869 -0.89502,0.27832 -1.78807,0.59375 -2.65183,0.94872 -0.34912,0.87646 -0.67431,1.81053 -0.97021,2.77976 z"
                 style="fill:#d40000;fill-opacity:1;fill-rule:nonzero;stroke:none"
                 id="path14974" /><path
                 d="m 185.70856,-286.87765 c 0.86376,-0.35497 1.75681,-0.6704 2.65183,-0.94872 0.24853,-0.93114 0.49853,-1.81394 0.7368,-2.63864 -0.78417,0.33593 -1.54295,0.72021 -2.27146,1.14989 -0.39355,0.7412 -0.76757,1.56053 -1.11717,2.43747 z"
                 style="fill:#d40000;fill-opacity:1;fill-rule:nonzero;stroke:none"
                 id="path14976" /><path
                 d="m 187.63432,-284.89768 c 0.97655,-0.23242 1.95603,-0.42578 2.9111,-0.5708 0.15137,-1.07177 0.31201,-2.10398 0.47705,-3.08395 -0.8706,0.20654 -1.76707,0.44775 -2.66208,0.72606 -0.24854,0.93115 -0.49512,1.91063 -0.72607,2.92869 z"
                 style="fill:#d40000;fill-opacity:1;fill-rule:nonzero;stroke:none"
                 id="path14978" /><path
                 d="m 188.36039,-287.82637 c 0.89501,-0.27831 1.79148,-0.51952 2.66208,-0.72606 0.16455,-0.97997 0.33349,-1.9077 0.50097,-2.77048 -0.83202,0.23486 -1.64207,0.52196 -2.42625,0.8579 -0.23827,0.8247 -0.48827,1.7075 -0.7368,2.63864 z"
                 style="fill:#d40000;fill-opacity:1;fill-rule:nonzero;stroke:none"
                 id="path14980" /><path
                 d="m 189.79494,-278.66484 c 2.27488,-0.11523 4.53902,-0.16699 6.79583,-0.15527 0.0444,-1.22606 0.0884,-2.43601 0.13037,-3.61861 -2.19871,-0.01 -4.40669,0.11816 -6.59564,0.2915 -0.12695,1.13817 -0.23876,2.3032 -0.33056,3.48238 z"
                 style="fill:#d40000;fill-opacity:1;fill-rule:nonzero;stroke:none"
                 id="path14982" /><path
                 d="m 190.1255,-282.14722 c 2.18895,-0.17334 4.39693,-0.30127 6.59564,-0.2915 0.0415,-1.1831 0.0806,-2.33885 0.11426,-3.457 -2.06932,-0.006 -4.29,0.12646 -6.28998,0.42724 -0.15088,1.07177 -0.29296,2.18308 -0.41992,3.32126 z"
                 style="fill:#d40000;fill-opacity:1;fill-rule:nonzero;stroke:none"
                 id="path14984" /><path
                 d="m 190.54542,-285.46848 c 1.99998,-0.30078 4.22066,-0.4331 6.28998,-0.42724 0.0337,-1.11815 0.062,-2.19871 0.0815,-3.23093 -1.94041,-0.002 -4.08394,0.146 -5.89447,0.57422 -0.16504,0.97997 -0.32568,2.01218 -0.47705,3.08395 z"
                 style="fill:#d40000;fill-opacity:1;fill-rule:nonzero;stroke:none"
                 id="path14986" /><path
                 d="m 191.02247,-288.55243 c 1.81053,-0.42822 3.95406,-0.57617 5.89447,-0.57422 0.02,-1.03221 0.0312,-2.01658 0.0312,-2.94235 -1.88182,0 -3.70016,0.25976 -5.42475,0.74609 -0.16748,0.86278 -0.33642,1.79051 -0.50097,2.77048 z"
                 style="fill:#d40000;fill-opacity:1;fill-rule:nonzero;stroke:none"
                 id="path14988" /><path
                 d="m 196.59077,-278.82011 c 3.29489,0.0171 6.57416,0.16846 9.85049,0.45117 -0.0913,-1.0498 -0.16699,-2.14012 -0.24902,-3.23337 -3.11081,-0.50195 -6.26117,-0.82225 -9.4711,-0.83641 -0.042,1.1826 -0.0859,2.39255 -0.13037,3.61861 z"
                 style="fill:#d40000;fill-opacity:1;fill-rule:nonzero;stroke:none"
                 id="path14990" /><path
                 d="m 196.72114,-282.43872 c 3.20993,0.0142 6.36029,0.33446 9.4711,0.83641 -0.082,-1.09276 -0.16992,-2.18845 -0.28564,-3.24899 -2.96286,-0.66405 -6.04633,-1.03563 -9.0712,-1.04442 -0.0337,1.11815 -0.0727,2.2739 -0.11426,3.457 z"
                 style="fill:#d40000;fill-opacity:1;fill-rule:nonzero;stroke:none"
                 id="path14992" /><path
                 d="m 196.8354,-285.89572 c 3.02487,0.009 6.10834,0.38037 9.0712,1.04442 -0.11524,-1.06102 -0.25781,-2.08689 -0.44922,-3.04098 -2.74997,-0.81689 -5.70062,-1.23193 -8.54044,-1.23437 -0.0195,1.03222 -0.0479,2.11278 -0.0815,3.23093 z"
                 style="fill:#d40000;fill-opacity:1;fill-rule:nonzero;stroke:none"
                 id="path14994" /><path
                 d="m 196.91694,-289.12665 c 2.83982,0.002 5.79047,0.41748 8.54044,1.23437 -0.1914,-0.9541 -0.43114,-1.83592 -0.74071,-2.60838 -2.38816,-1.00975 -5.01314,-1.56834 -7.76848,-1.56834 0,0.92577 -0.0112,1.91014 -0.0312,2.94235 z"
                 style="fill:#d40000;fill-opacity:1;fill-rule:nonzero;stroke:none"
                 id="path14996" /><path
                 d="m 206.44126,-278.36894 c 3.27585,0.2832 6.54876,0.69823 9.82998,1.24217 -0.22607,-0.87401 -0.50976,-1.72459 -0.84716,-2.54782 -3.05075,-0.74121 -6.12152,-1.42528 -9.23184,-1.92772 0.082,1.09325 0.15771,2.18357 0.24902,3.23337 z"
                 style="fill:#d40000;fill-opacity:1;fill-rule:nonzero;stroke:none"
                 id="path14998" /><path
                 d="m 206.19224,-281.60231 c 3.11032,0.50244 6.18109,1.18651 9.23184,1.92772 -0.3374,-0.82324 -0.72851,-1.61864 -1.16844,-2.3823 -2.54344,-1.17528 -5.38569,-2.13084 -8.34904,-2.79441 0.11572,1.06054 0.20361,2.15623 0.28564,3.24899 z"
                 style="fill:#d40000;fill-opacity:1;fill-rule:nonzero;stroke:none"
                 id="path15000" /><path
                 d="m 205.9066,-284.8513 c 2.96335,0.66357 5.8056,1.61913 8.34904,2.79441 -0.87988,-1.52733 -1.95653,-2.92722 -3.19529,-4.16549 -1.80564,-1.80662 -3.95601,-3.26803 -6.34368,-4.27828 0.61913,1.54491 0.95946,3.5278 1.18993,5.64936 z"
                 style="fill:#d40000;fill-opacity:1;fill-rule:nonzero;stroke:none"
                 id="path15002" /></g></g></g></g></g><g
       id="g15112"
       transform="matrix(8.0738636,0,0,-8.0738636,-1307.0535,2765.154)"
       style="fill:#ff0000;filter:url(#filter15118)"><g
         id="g15110"
         clip-path="url(#clipPath7970)"
         style="fill:#ff0000"><g
           id="g15108"
           style="fill:#ff0000"><g
             id="g15106"
             transform="scale(1,-1)"
             style="fill:#ff0000"><g
               id="g15104"
               style="fill:#ff0000"><path
                 d="m 182.83993,-257.98975 c 1.18944,1.18749 2.5283,2.22654 3.9858,3.08591 -1.21678,-2.51414 -2.19626,-5.34028 -2.87155,-8.29289 -2.01756,-0.22363 -3.91695,-0.54247 -5.39594,-1.14012 1.01122,2.38913 2.47409,4.54048 4.28169,6.3471 z"
                 style="fill:#ff0000;fill-opacity:1;fill-rule:nonzero;stroke:none"
                 id="path15014" /><path
                 d="m 178.55824,-264.33685 c -1.01074,-2.38914 -1.56981,-5.01558 -1.56981,-7.77239 0.88427,0.004 1.83103,-0.0107 2.8237,-0.0361 -9.8e-4,2.83884 0.41748,5.78022 1.24218,8.51896 -0.9121,-0.18262 -1.75633,-0.41162 -2.49607,-0.71044 z"
                 style="fill:#ff0000;fill-opacity:1;fill-rule:nonzero;stroke:none"
                 id="path15016" /><path
                 d="m 181.05431,-263.62641 c -0.8247,-2.73874 -1.24316,-5.68012 -1.24218,-8.51896 0.99315,-0.0249 2.03221,-0.061 3.10104,-0.0996 -0.004,3.01804 0.36621,6.09613 1.04101,9.04825 -1.00878,-0.11181 -1.98777,-0.24755 -2.89987,-0.42968 z"
                 style="fill:#ff0000;fill-opacity:1;fill-rule:nonzero;stroke:none"
                 id="path15018" /><path
                 d="m 186.82573,-254.90384 c -1.21678,-2.51414 -2.19626,-5.34028 -2.87155,-8.29289 1.00927,0.11182 2.04783,0.2002 3.07809,0.28711 0.52539,3.10202 1.25487,6.15521 2.06492,9.15616 -0.78417,-0.33594 -1.54295,-0.7207 -2.27146,-1.15038 z"
                 style="fill:#ff0000;fill-opacity:1;fill-rule:nonzero;stroke:none"
                 id="path15020" /><path
                 d="m 189.09719,-253.75346 c -0.81005,-3.00095 -1.53953,-6.05414 -2.06492,-9.15616 1.03075,0.0869 2.05321,0.17285 3.02976,0.28076 0.33886,3.26266 0.83593,6.51067 1.46141,9.73281 -0.83202,-0.23437 -1.64207,-0.52148 -2.42625,-0.85741 z"
                 style="fill:#ff0000;fill-opacity:1;fill-rule:nonzero;stroke:none"
                 id="path15022" /><path
                 d="m 183.95418,-263.19673 c -0.6748,-2.95212 -1.04491,-6.03021 -1.04101,-9.04825 1.06835,-0.0386 2.16697,-0.0796 3.27829,-0.11621 -0.005,3.19772 0.31543,6.34906 0.84081,9.45157 -1.03026,-0.0869 -2.06882,-0.17529 -3.07809,-0.28711 z"
                 style="fill:#ff0000;fill-opacity:1;fill-rule:nonzero;stroke:none"
                 id="path15024" /><path
                 d="m 187.03227,-262.90962 c -0.52538,-3.10251 -0.84618,-6.25385 -0.84081,-9.45157 1.11181,-0.0361 2.23631,-0.0674 3.35788,-0.0859 -0.007,3.27926 0.17382,6.55608 0.51269,9.81826 -0.97655,-0.10791 -1.99901,-0.19385 -3.02976,-0.28076 z"
                 style="fill:#ff0000;fill-opacity:1;fill-rule:nonzero;stroke:none"
                 id="path15026" /><path
                 d="m 176.98843,-272.10924 c 0,-1.73436 0.22168,-3.41598 0.63671,-5.01948 0.84081,-0.13916 1.75242,-0.2915 2.71384,-0.44433 -0.37548,1.67674 -0.52587,3.64059 -0.52685,5.42768 -0.99267,0.0254 -1.93943,0.04 -2.8237,0.0361 z"
                 style="fill:#ff0000;fill-opacity:1;fill-rule:nonzero;stroke:none"
                 id="path15028" /><path
                 d="m 179.81213,-272.14537 c 9.8e-4,-1.78709 0.15137,-3.75094 0.52685,-5.42768 0.96191,-0.15283 1.97361,-0.30664 3.01511,-0.45019 -0.28857,1.83738 -0.43896,3.87496 -0.44092,5.77826 -1.06883,0.0386 -2.10789,0.0747 -3.10104,0.0996 z"
                 style="fill:#ff0000;fill-opacity:1;fill-rule:nonzero;stroke:none"
                 id="path15030" /><path
                 d="m 182.91317,-272.24498 c 0.002,-1.9033 0.15235,-3.94088 0.44092,-5.77826 1.04149,-0.14307 2.11277,-0.27588 3.19284,-0.38672 -0.20117,1.99803 -0.35156,4.02926 -0.35547,6.04877 -1.11132,0.0366 -2.20994,0.0776 -3.27829,0.11621 z"
                 style="fill:#ff0000;fill-opacity:1;fill-rule:nonzero;stroke:none"
                 id="path15032" /><path
                 d="m 186.19146,-272.36119 c 0.004,-2.01951 0.1543,-4.05074 0.35547,-6.04877 1.08055,-0.11083 2.1699,-0.1997 3.24801,-0.25488 -0.16162,2.07127 -0.24121,4.14498 -0.2456,6.21772 -1.12157,0.0186 -2.24607,0.0498 -3.35788,0.0859 z"
                 style="fill:#ff0000;fill-opacity:1;fill-rule:nonzero;stroke:none"
                 id="path15034" /><path
                 d="m 191.52344,-252.89605 c 1.72459,0.48632 3.54293,0.74609 5.42475,0.74609 -0.0557,-3.18942 -0.10351,-6.48627 -0.14844,-9.85391 -2.13279,-0.021 -4.69575,-0.35009 -6.73772,-0.6245 0.33886,3.26217 0.83593,6.51067 1.46141,9.73232 z"
                 style="fill:#ff0000;fill-opacity:1;fill-rule:nonzero;stroke:none"
                 id="path15036" /><path
                 d="m 190.06203,-262.62837 c 2.04197,0.27441 4.60493,0.60351 6.73772,0.6245 -0.0454,-3.36813 -0.0884,-6.80706 -0.1333,-10.28115 -2.38376,-0.0425 -4.75776,-0.0991 -7.11711,-0.16162 -0.007,3.27878 0.17382,6.5556 0.51269,9.81827 z"
                 style="fill:#ff0000;fill-opacity:1;fill-rule:nonzero;stroke:none"
                 id="path15038" /><path
                 d="m 196.94819,-252.14996 c 2.75534,0 5.38032,-0.55859 7.76848,-1.56884 0.87548,-2.49753 1.44871,-5.55365 1.79783,-8.76407 -3.22409,0.37012 -6.59661,0.50976 -9.71475,0.479 0.0449,3.36764 0.0928,6.66449 0.14844,9.85391 z"
                 style="fill:#ff0000;fill-opacity:1;fill-rule:nonzero;stroke:none"
                 id="path15040" /><path
                 d="m 196.79975,-262.00387 c 3.11814,0.0308 6.49066,-0.10888 9.71475,-0.479 0.34863,-3.20993 0.47314,-6.57464 0.45019,-9.68936 -3.37887,-0.0215 -6.81731,-0.0513 -10.29824,-0.11279 0.0449,3.47409 0.0879,6.91302 0.1333,10.28115 z"
                 style="fill:#ff0000;fill-opacity:1;fill-rule:nonzero;stroke:none"
                 id="path15042" /><path
                 d="m 204.71667,-253.7188 c 2.38767,-1.00975 4.53804,-2.47116 6.34368,-4.27681 1.80663,-1.80662 3.26804,-3.95699 4.27779,-6.34515 -2.52438,0.88866 -5.60004,1.48827 -8.82364,1.85789 -0.34912,3.21042 -0.92235,6.26654 -1.79783,8.76407 z"
                 style="fill:#ff0000;fill-opacity:1;fill-rule:nonzero;stroke:none"
                 id="path15044" /><path
                 d="m 206.5145,-262.48287 c 3.2236,-0.36962 6.29926,-0.96923 8.82364,-1.85789 1.00976,-2.38767 1.56786,-5.01265 1.56786,-7.76848 -3.24313,-0.0288 -6.56243,-0.0415 -9.94131,-0.063 0.023,3.11472 -0.10156,6.47943 -0.45019,9.68936 z"
                 style="fill:#ff0000;fill-opacity:1;fill-rule:nonzero;stroke:none"
                 id="path15046" /><path
                 d="m 189.54934,-272.44664 c 2.35935,0.0625 4.73335,0.11914 7.11711,0.16162 -0.0288,-2.19382 -0.0576,-4.37495 -0.0752,-6.53509 -2.2573,-0.0117 -4.52144,0.04 -6.79632,0.15527 -0.16162,2.07176 -0.24121,4.14547 -0.2456,6.2182 z"
                 style="fill:#ff0000;fill-opacity:1;fill-rule:nonzero;stroke:none"
                 id="path15048" /><path
                 d="m 196.66645,-272.28502 c -0.0288,-2.19382 -0.0576,-4.37495 -0.0752,-6.53509 3.2944,0.0171 6.57367,0.16846 9.85,0.45117 0.21582,1.88182 0.50927,4.23287 0.52343,6.19671 -3.37887,-0.0215 -6.81731,-0.0513 -10.29824,-0.11279 z"
                 style="fill:#ff0000;fill-opacity:1;fill-rule:nonzero;stroke:none"
                 id="path15050" /><path
                 d="m 206.96469,-272.17223 c -0.0142,-1.96384 -0.30761,-4.31489 -0.52343,-6.19671 3.27585,0.2832 6.54876,0.69823 9.82998,1.24217 0.41504,1.6035 0.63476,3.28415 0.63476,5.01753 -3.24313,-0.0288 -6.56243,-0.0415 -9.94131,-0.063 z"
                 style="fill:#ff0000;fill-opacity:1;fill-rule:nonzero;stroke:none"
                 id="path15052" /><path
                 d="m 177.62514,-277.12872 c 0.84081,-0.13916 1.75242,-0.2915 2.71384,-0.44433 0.20556,-0.92187 0.4458,-1.86375 0.7246,-2.7988 -0.91796,0.24511 -1.78758,0.48388 -2.58982,0.69433 -0.33788,0.82323 -0.62206,1.6743 -0.84862,2.5488 z"
                 style="fill:#ff0000;fill-opacity:1;fill-rule:nonzero;stroke:none"
                 id="path15054" /><path
                 d="m 178.47376,-279.67752 c 0.80224,-0.21045 1.67186,-0.44922 2.58982,-0.69433 0.27881,-0.93505 0.59619,-1.86375 0.95702,-2.75925 -0.85839,0.34277 -1.65965,0.70312 -2.3779,1.06981 -0.43994,0.76416 -0.83105,1.56005 -1.16894,2.38377 z"
                 style="fill:#ff0000;fill-opacity:1;fill-rule:nonzero;stroke:none"
                 id="path15056" /><path
                 d="m 180.33898,-277.57305 c 0.96191,-0.15283 1.97361,-0.30664 3.01511,-0.45019 0.15918,-1.02636 0.35742,-2.06053 0.58984,-3.08005 -0.99609,0.23535 -1.96239,0.48632 -2.88035,0.73144 -0.2788,0.93505 -0.51904,1.87693 -0.7246,2.7988 z"
                 style="fill:#ff0000;fill-opacity:1;fill-rule:nonzero;stroke:none"
                 id="path15058" /><path
                 d="m 181.06358,-280.37185 c 0.91796,-0.24512 1.88426,-0.49609 2.88035,-0.73144 0.23241,-1.01952 0.49853,-2.02488 0.79442,-2.9946 -0.94481,0.29834 -1.85936,0.62402 -2.71775,0.96679 -0.36083,0.8955 -0.67821,1.8242 -0.95702,2.75925 z"
                 style="fill:#ff0000;fill-opacity:1;fill-rule:nonzero;stroke:none"
                 id="path15060" /><path
                 d="m 179.6427,-282.06129 c 0.88085,-1.5283 1.95799,-2.92868 3.19723,-4.16695 0.59472,-0.59423 1.22655,-1.15135 1.89256,-1.66697 -1.09813,1.31444 -1.9907,2.97311 -2.71189,4.76411 -0.85839,0.34277 -1.65965,0.70312 -2.3779,1.06981 z"
                 style="fill:#ff0000;fill-opacity:1;fill-rule:nonzero;stroke:none"
                 id="path15062" /><path
                 d="m 182.0206,-283.1311 c 0.72119,-1.791 1.61376,-3.44967 2.71189,-4.76411 0.66552,-0.51562 1.36473,-0.99023 2.09324,-1.41991 -0.7871,1.48192 -1.49559,3.27829 -2.08738,5.21723 -0.94481,0.29834 -1.85936,0.62402 -2.71775,0.96679 z"
                 style="fill:#ff0000;fill-opacity:1;fill-rule:nonzero;stroke:none"
                 id="path15064" /><path
                 d="m 183.35409,-278.02324 c 1.04149,-0.14307 2.11277,-0.27588 3.19284,-0.38672 0.11279,-1.13182 0.26904,-2.2446 0.45507,-3.32955 -1.03661,0.18164 -2.06199,0.40087 -3.05807,0.63622 -0.23242,1.01952 -0.43066,2.05369 -0.58984,3.08005 z"
                 style="fill:#ff0000;fill-opacity:1;fill-rule:nonzero;stroke:none"
                 id="path15066" /><path
                 d="m 183.94393,-281.10329 c 0.99608,-0.23535 2.02146,-0.45458 3.05807,-0.63622 0.18603,-1.08446 0.40136,-2.14061 0.63232,-3.15817 -0.97704,0.23193 -1.95115,0.50194 -2.89597,0.79979 -0.29589,0.96972 -0.56201,1.97508 -0.79442,2.9946 z"
                 style="fill:#ff0000;fill-opacity:1;fill-rule:nonzero;stroke:none"
                 id="path15068" /><path
                 d="m 186.54693,-278.40996 c 1.08055,-0.11083 2.1699,-0.1997 3.24801,-0.25488 0.0918,-1.17918 0.20361,-2.34421 0.33056,-3.48238 -1.03954,0.083 -2.08689,0.22656 -3.1235,0.40771 -0.18603,1.08495 -0.34228,2.19773 -0.45507,3.32955 z"
                 style="fill:#ff0000;fill-opacity:1;fill-rule:nonzero;stroke:none"
                 id="path15070" /><path
                 d="m 187.002,-281.73951 c 1.03661,-0.18115 2.08396,-0.32471 3.1235,-0.40771 0.12696,-1.13818 0.26904,-2.24949 0.41992,-3.32126 -0.95507,0.14502 -1.93455,0.33838 -2.9111,0.5708 -0.23096,1.01756 -0.44629,2.07371 -0.63232,3.15817 z"
                 style="fill:#ff0000;fill-opacity:1;fill-rule:nonzero;stroke:none"
                 id="path15072" /><path
                 d="m 184.73835,-284.09789 c 0.94482,-0.29785 1.91893,-0.56786 2.89597,-0.79979 0.23095,-1.01806 0.47753,-1.99754 0.72607,-2.92869 -0.89502,0.27832 -1.78807,0.59375 -2.65183,0.94872 -0.34912,0.87646 -0.67431,1.81053 -0.97021,2.77976 z"
                 style="fill:#ff0000;fill-opacity:1;fill-rule:nonzero;stroke:none"
                 id="path15074" /><path
                 d="m 185.70856,-286.87765 c 0.86376,-0.35497 1.75681,-0.6704 2.65183,-0.94872 0.24853,-0.93114 0.49853,-1.81394 0.7368,-2.63864 -0.78417,0.33593 -1.54295,0.72021 -2.27146,1.14989 -0.39355,0.7412 -0.76757,1.56053 -1.11717,2.43747 z"
                 style="fill:#ff0000;fill-opacity:1;fill-rule:nonzero;stroke:none"
                 id="path15076" /><path
                 d="m 187.63432,-284.89768 c 0.97655,-0.23242 1.95603,-0.42578 2.9111,-0.5708 0.15137,-1.07177 0.31201,-2.10398 0.47705,-3.08395 -0.8706,0.20654 -1.76707,0.44775 -2.66208,0.72606 -0.24854,0.93115 -0.49512,1.91063 -0.72607,2.92869 z"
                 style="fill:#ff0000;fill-opacity:1;fill-rule:nonzero;stroke:none"
                 id="path15078" /><path
                 d="m 188.36039,-287.82637 c 0.89501,-0.27831 1.79148,-0.51952 2.66208,-0.72606 0.16455,-0.97997 0.33349,-1.9077 0.50097,-2.77048 -0.83202,0.23486 -1.64207,0.52196 -2.42625,0.8579 -0.23827,0.8247 -0.48827,1.7075 -0.7368,2.63864 z"
                 style="fill:#ff0000;fill-opacity:1;fill-rule:nonzero;stroke:none"
                 id="path15080" /><path
                 d="m 189.79494,-278.66484 c 2.27488,-0.11523 4.53902,-0.16699 6.79583,-0.15527 0.0444,-1.22606 0.0884,-2.43601 0.13037,-3.61861 -2.19871,-0.01 -4.40669,0.11816 -6.59564,0.2915 -0.12695,1.13817 -0.23876,2.3032 -0.33056,3.48238 z"
                 style="fill:#ff0000;fill-opacity:1;fill-rule:nonzero;stroke:none"
                 id="path15082" /><path
                 d="m 190.1255,-282.14722 c 2.18895,-0.17334 4.39693,-0.30127 6.59564,-0.2915 0.0415,-1.1831 0.0806,-2.33885 0.11426,-3.457 -2.06932,-0.006 -4.29,0.12646 -6.28998,0.42724 -0.15088,1.07177 -0.29296,2.18308 -0.41992,3.32126 z"
                 style="fill:#ff0000;fill-opacity:1;fill-rule:nonzero;stroke:none"
                 id="path15084" /><path
                 d="m 190.54542,-285.46848 c 1.99998,-0.30078 4.22066,-0.4331 6.28998,-0.42724 0.0337,-1.11815 0.062,-2.19871 0.0815,-3.23093 -1.94041,-0.002 -4.08394,0.146 -5.89447,0.57422 -0.16504,0.97997 -0.32568,2.01218 -0.47705,3.08395 z"
                 style="fill:#ff0000;fill-opacity:1;fill-rule:nonzero;stroke:none"
                 id="path15086" /><path
                 d="m 191.02247,-288.55243 c 1.81053,-0.42822 3.95406,-0.57617 5.89447,-0.57422 0.02,-1.03221 0.0312,-2.01658 0.0312,-2.94235 -1.88182,0 -3.70016,0.25976 -5.42475,0.74609 -0.16748,0.86278 -0.33642,1.79051 -0.50097,2.77048 z"
                 style="fill:#ff0000;fill-opacity:1;fill-rule:nonzero;stroke:none"
                 id="path15088" /><path
                 d="m 196.59077,-278.82011 c 3.29489,0.0171 6.57416,0.16846 9.85049,0.45117 -0.0913,-1.0498 -0.16699,-2.14012 -0.24902,-3.23337 -3.11081,-0.50195 -6.26117,-0.82225 -9.4711,-0.83641 -0.042,1.1826 -0.0859,2.39255 -0.13037,3.61861 z"
                 style="fill:#ff0000;fill-opacity:1;fill-rule:nonzero;stroke:none"
                 id="path15090" /><path
                 d="m 196.72114,-282.43872 c 3.20993,0.0142 6.36029,0.33446 9.4711,0.83641 -0.082,-1.09276 -0.16992,-2.18845 -0.28564,-3.24899 -2.96286,-0.66405 -6.04633,-1.03563 -9.0712,-1.04442 -0.0337,1.11815 -0.0727,2.2739 -0.11426,3.457 z"
                 style="fill:#ff0000;fill-opacity:1;fill-rule:nonzero;stroke:none"
                 id="path15092" /><path
                 d="m 196.8354,-285.89572 c 3.02487,0.009 6.10834,0.38037 9.0712,1.04442 -0.11524,-1.06102 -0.25781,-2.08689 -0.44922,-3.04098 -2.74997,-0.81689 -5.70062,-1.23193 -8.54044,-1.23437 -0.0195,1.03222 -0.0479,2.11278 -0.0815,3.23093 z"
                 style="fill:#ff0000;fill-opacity:1;fill-rule:nonzero;stroke:none"
                 id="path15094" /><path
                 d="m 196.91694,-289.12665 c 2.83982,0.002 5.79047,0.41748 8.54044,1.23437 -0.1914,-0.9541 -0.43114,-1.83592 -0.74071,-2.60838 -2.38816,-1.00975 -5.01314,-1.56834 -7.76848,-1.56834 0,0.92577 -0.0112,1.91014 -0.0312,2.94235 z"
                 style="fill:#ff0000;fill-opacity:1;fill-rule:nonzero;stroke:none"
                 id="path15096" /><path
                 d="m 206.44126,-278.36894 c 3.27585,0.2832 6.54876,0.69823 9.82998,1.24217 -0.22607,-0.87401 -0.50976,-1.72459 -0.84716,-2.54782 -3.05075,-0.74121 -6.12152,-1.42528 -9.23184,-1.92772 0.082,1.09325 0.15771,2.18357 0.24902,3.23337 z"
                 style="fill:#ff0000;fill-opacity:1;fill-rule:nonzero;stroke:none"
                 id="path15098" /><path
                 d="m 206.19224,-281.60231 c 3.11032,0.50244 6.18109,1.18651 9.23184,1.92772 -0.3374,-0.82324 -0.72851,-1.61864 -1.16844,-2.3823 -2.54344,-1.17528 -5.38569,-2.13084 -8.34904,-2.79441 0.11572,1.06054 0.20361,2.15623 0.28564,3.24899 z"
                 style="fill:#ff0000;fill-opacity:1;fill-rule:nonzero;stroke:none"
                 id="path15100" /><path
                 d="m 205.9066,-284.8513 c 2.96335,0.66357 5.8056,1.61913 8.34904,2.79441 -0.87988,-1.52733 -1.95653,-2.92722 -3.19529,-4.16549 -1.80564,-1.80662 -3.95601,-3.26803 -6.34368,-4.27828 0.61913,1.54491 0.95946,3.5278 1.18993,5.64936 z"
                 style="fill:#ff0000;fill-opacity:1;fill-rule:nonzero;stroke:none"
                 id="path15102" /></g></g></g></g></g><g
       id="g8068"
       transform="matrix(9.6795233,0,0,-9.6795233,-1610.8298,3205.0142)"
       style="opacity:1;fill:#ff2a2a;filter:url(#filter15114)"><g
         id="g8070"
         clip-path="url(#clipPath8074)"
         style="fill:#ff2a2a"><g
           id="g8076"
           style="fill:#ff2a2a"><g
             id="g8078"
             style="fill:#ff2a2a" /><g
             id="g8108"
             style="fill:#ff2a2a"><g
               clip-path="url(#clipPath8082)"
               opacity="0.800003"
               id="g8106"
               style="fill:#ff2a2a"><g
                 id="g8104"
                 style="fill:#ff2a2a"><g
                   clip-path="url(#clipPath8086)"
                   id="g8102"
                   style="fill:#ff2a2a"><g
                     id="g8100"
                     style="fill:#ff2a2a"><g
                       id="g8098"
                       style="fill:#ff2a2a"><path
                         d="m 205.193,283.259 c 3.765,-5.911 1.582,-14.039 -4.876,-18.153 -6.459,-4.112 -14.747,-2.653 -18.512,3.256 -3.764,5.913 -1.582,14.04 4.877,18.155 6.458,4.113 14.747,2.653 18.511,-3.258"
                         style="fill:#ff2a2a;stroke:none"
                         id="path8096" /></g></g></g></g></g></g></g><g
           id="g8110"
           style="opacity:0.721757;fill:#ff5555"
           transform="matrix(1.408125,0,0,1.539915,-76.316703,-151.82032)"><g
             id="g8112"
             style="fill:#ff5555" /><g
             id="g8632"
             style="fill:#ff5555"><g
               clip-path="url(#clipPath8116)"
               id="g8630"
               style="fill:#ff5555"><g
                 id="g8256"
                 style="fill:#ff5555"><g
                   id="g8246"
                   style="fill:#ff5555" /><g
                   id="g8254"
                   style="fill:#ff5555"><g
                     clip-path="url(#clipPath8120)"
                     opacity="0"
                     id="g8252"
                     style="fill:#ff5555"><g
                       transform="translate(191.5098,282.4805)"
                       id="g8250"
                       style="fill:#ff5555"><path
                         d="m 0,0 c 1.416,-1.509 1.113,-4.094 -0.677,-5.773 -1.79,-1.68 -4.389,-1.815 -5.805,-0.307 -1.416,1.511 -1.112,4.095 0.678,5.774 C -4.015,1.373 -1.415,1.51 0,0"
                         style="fill:#ff5555;fill-opacity:1;fill-rule:nonzero;stroke:none"
                         id="path8248" /></g></g></g></g><g
                 id="g8268"
                 style="fill:#ff5555"><g
                   id="g8258"
                   style="fill:#ff5555" /><g
                   id="g8266"
                   style="fill:#ff5555"><g
                     clip-path="url(#clipPath8124)"
                     opacity="0.0322571"
                     id="g8264"
                     style="fill:#ff5555"><g
                       transform="translate(191.4521,282.4687)"
                       id="g8262"
                       style="fill:#ff5555"><path
                         d="m 0,0 c 1.392,-1.483 1.095,-4.022 -0.663,-5.674 -1.759,-1.648 -4.313,-1.781 -5.703,-0.299 -1.392,1.485 -1.094,4.024 0.665,5.674 C -3.944,1.35 -1.39,1.483 0,0"
                         style="fill:#ff5555;fill-opacity:1;fill-rule:nonzero;stroke:none"
                         id="path8260" /></g></g></g></g><g
                 id="g8280"
                 style="fill:#ff5555"><g
                   id="g8270"
                   style="fill:#ff5555" /><g
                   id="g8278"
                   style="fill:#ff5555"><g
                     clip-path="url(#clipPath8128)"
                     opacity="0.0645142"
                     id="g8276"
                     style="fill:#ff5555"><g
                       transform="translate(191.3955,282.457)"
                       id="g8274"
                       style="fill:#ff5555"><path
                         d="m 0,0 c 1.366,-1.457 1.075,-3.951 -0.651,-5.572 -1.727,-1.619 -4.236,-1.748 -5.601,-0.293 -1.367,1.459 -1.075,3.953 0.651,5.572 C -3.875,1.326 -1.366,1.457 0,0"
                         style="fill:#ff5555;fill-opacity:1;fill-rule:nonzero;stroke:none"
                         id="path8272" /></g></g></g></g><g
                 id="g8292"
                 style="fill:#ff5555"><g
                   id="g8282"
                   style="fill:#ff5555" /><g
                   id="g8290"
                   style="fill:#ff5555"><g
                     clip-path="url(#clipPath8132)"
                     opacity="0.0967712"
                     id="g8288"
                     style="fill:#ff5555"><g
                       transform="translate(191.3369,282.4453)"
                       id="g8286"
                       style="fill:#ff5555"><path
                         d="m 0,0 c 1.343,-1.431 1.058,-3.879 -0.638,-5.471 -1.694,-1.59 -4.157,-1.716 -5.499,-0.287 -1.343,1.434 -1.056,3.882 0.639,5.473 C -3.804,1.304 -1.342,1.432 0,0"
                         style="fill:#ff5555;fill-opacity:1;fill-rule:nonzero;stroke:none"
                         id="path8284" /></g></g></g></g><g
                 id="g8304"
                 style="fill:#ff5555"><g
                   id="g8294"
                   style="fill:#ff5555" /><g
                   id="g8302"
                   style="fill:#ff5555"><g
                     clip-path="url(#clipPath8136)"
                     opacity="0.129028"
                     id="g8300"
                     style="fill:#ff5555"><g
                       transform="translate(191.2803,282.4336)"
                       id="g8298"
                       style="fill:#ff5555"><path
                         d="M 0,0 C 1.317,-1.404 1.038,-3.809 -0.625,-5.369 -2.288,-6.93 -4.705,-7.053 -6.022,-5.65 -7.341,-4.243 -7.06,-1.84 -5.397,-0.279 -3.735,1.279 -1.317,1.404 0,0"
                         style="fill:#ff5555;fill-opacity:1;fill-rule:nonzero;stroke:none"
                         id="path8296" /></g></g></g></g><g
                 id="g8316"
                 style="fill:#ff5555"><g
                   id="g8306"
                   style="fill:#ff5555" /><g
                   id="g8314"
                   style="fill:#ff5555"><g
                     clip-path="url(#clipPath8140)"
                     opacity="0.161285"
                     id="g8312"
                     style="fill:#ff5555"><g
                       transform="translate(191.2227,282.4219)"
                       id="g8310"
                       style="fill:#ff5555"><path
                         d="m 0,0 c 1.294,-1.379 1.02,-3.736 -0.611,-5.269 -1.631,-1.53 -4.003,-1.651 -5.295,-0.274 -1.294,1.381 -1.02,3.738 0.611,5.27 C -3.664,1.256 -1.293,1.379 0,0"
                         style="fill:#ff5555;fill-opacity:1;fill-rule:nonzero;stroke:none"
                         id="path8308" /></g></g></g></g><g
                 id="g8328"
                 style="fill:#ff5555"><g
                   id="g8318"
                   style="fill:#ff5555" /><g
                   id="g8326"
                   style="fill:#ff5555"><g
                     clip-path="url(#clipPath8144)"
                     opacity="0.193542"
                     id="g8324"
                     style="fill:#ff5555"><g
                       transform="translate(191.165,282.4102)"
                       id="g8322"
                       style="fill:#ff5555"><path
                         d="m 0,0 c 1.27,-1.354 1.002,-3.666 -0.599,-5.168 -1.598,-1.5 -3.925,-1.617 -5.193,-0.266 -1.269,1.354 -1.001,3.666 0.6,5.167 C -3.595,1.234 -1.268,1.352 0,0"
                         style="fill:#ff5555;fill-opacity:1;fill-rule:nonzero;stroke:none"
                         id="path8320" /></g></g></g></g><g
                 id="g8340"
                 style="fill:#ff5555"><g
                   id="g8330"
                   style="fill:#ff5555" /><g
                   id="g8338"
                   style="fill:#ff5555"><g
                     clip-path="url(#clipPath8148)"
                     opacity="0.2258"
                     id="g8336"
                     style="fill:#ff5555"><g
                       transform="translate(191.1074,282.3984)"
                       id="g8334"
                       style="fill:#ff5555"><path
                         d="m 0,0 c 1.244,-1.326 0.982,-3.594 -0.585,-5.066 -1.568,-1.471 -3.849,-1.586 -5.093,-0.26 -1.244,1.328 -0.981,3.596 0.586,5.066 C -3.524,1.211 -1.244,1.326 0,0"
                         style="fill:#ff5555;fill-opacity:1;fill-rule:nonzero;stroke:none"
                         id="path8332" /></g></g></g></g><g
                 id="g8352"
                 style="fill:#ff5555"><g
                   id="g8342"
                   style="fill:#ff5555" /><g
                   id="g8350"
                   style="fill:#ff5555"><g
                     clip-path="url(#clipPath8152)"
                     opacity="0.258057"
                     id="g8348"
                     style="fill:#ff5555"><g
                       transform="translate(191.0508,282.3867)"
                       id="g8346"
                       style="fill:#ff5555"><path
                         d="m 0,0 c 1.22,-1.301 0.964,-3.523 -0.572,-4.965 -1.537,-1.441 -3.772,-1.553 -4.992,-0.254 -1.219,1.303 -0.962,3.524 0.574,4.965 C -3.455,1.187 -1.22,1.301 0,0"
                         style="fill:#ff5555;fill-opacity:1;fill-rule:nonzero;stroke:none"
                         id="path8344" /></g></g></g></g><g
                 id="g8364"
                 style="fill:#ff5555"><g
                   id="g8354"
                   style="fill:#ff5555" /><g
                   id="g8362"
                   style="fill:#ff5555"><g
                     clip-path="url(#clipPath8156)"
                     opacity="0.290329"
                     id="g8360"
                     style="fill:#ff5555"><g
                       transform="translate(190.9932,282.374)"
                       id="g8358"
                       style="fill:#ff5555"><path
                         d="m 0,0 c 1.196,-1.274 0.946,-3.45 -0.56,-4.863 -1.503,-1.411 -3.693,-1.521 -4.887,-0.247 -1.197,1.275 -0.946,3.453 0.559,4.863 C -3.384,1.165 -1.195,1.274 0,0"
                         style="fill:#ff5555;fill-opacity:1;fill-rule:nonzero;stroke:none"
                         id="path8356" /></g></g></g></g><g
                 id="g8376"
                 style="fill:#ff5555"><g
                   id="g8366"
                   style="fill:#ff5555" /><g
                   id="g8374"
                   style="fill:#ff5555"><g
                     clip-path="url(#clipPath8160)"
                     opacity="0.322586"
                     id="g8372"
                     style="fill:#ff5555"><g
                       transform="translate(190.9355,282.3633)"
                       id="g8370"
                       style="fill:#ff5555"><path
                         d="m 0,0 c 1.172,-1.248 0.928,-3.381 -0.546,-4.764 -1.472,-1.381 -3.617,-1.486 -4.787,-0.24 -1.171,1.25 -0.926,3.381 0.547,4.764 C -3.314,1.141 -1.171,1.248 0,0"
                         style="fill:#ff5555;fill-opacity:1;fill-rule:nonzero;stroke:none"
                         id="path8368" /></g></g></g></g><g
                 id="g8388"
                 style="fill:#ff5555"><g
                   id="g8378"
                   style="fill:#ff5555" /><g
                   id="g8386"
                   style="fill:#ff5555"><g
                     clip-path="url(#clipPath8164)"
                     opacity="0.354843"
                     id="g8384"
                     style="fill:#ff5555"><g
                       transform="translate(190.8779,282.3516)"
                       id="g8382"
                       style="fill:#ff5555"><path
                         d="m 0,0 c 1.147,-1.223 0.909,-3.309 -0.533,-4.662 -1.441,-1.352 -3.539,-1.455 -4.685,-0.234 -1.146,1.224 -0.908,3.31 0.533,4.662 C -3.244,1.117 -1.146,1.222 0,0"
                         style="fill:#ff5555;fill-opacity:1;fill-rule:nonzero;stroke:none"
                         id="path8380" /></g></g></g></g><g
                 id="g8400"
                 style="fill:#ff5555"><g
                   id="g8390"
                   style="fill:#ff5555" /><g
                   id="g8398"
                   style="fill:#ff5555"><g
                     clip-path="url(#clipPath8168)"
                     opacity="0.3871"
                     id="g8396"
                     style="fill:#ff5555"><g
                       transform="translate(190.8203,282.3398)"
                       id="g8394"
                       style="fill:#ff5555"><path
                         d="m 0,0 c 1.122,-1.196 0.89,-3.238 -0.52,-4.561 -1.408,-1.322 -3.461,-1.422 -4.584,-0.228 -1.121,1.199 -0.888,3.24 0.522,4.562 C -3.174,1.094 -1.121,1.195 0,0"
                         style="fill:#ff5555;fill-opacity:1;fill-rule:nonzero;stroke:none"
                         id="path8392" /></g></g></g></g><g
                 id="g8412"
                 style="fill:#ff5555"><g
                   id="g8402"
                   style="fill:#ff5555" /><g
                   id="g8410"
                   style="fill:#ff5555"><g
                     clip-path="url(#clipPath8172)"
                     opacity="0.419357"
                     id="g8408"
                     style="fill:#ff5555"><g
                       transform="translate(190.7637,282.3262)"
                       id="g8406"
                       style="fill:#ff5555"><path
                         d="m 0,0 c 1.098,-1.169 0.871,-3.164 -0.507,-4.459 -1.378,-1.291 -3.385,-1.389 -4.481,-0.22 -1.098,1.171 -0.871,3.167 0.507,4.46 C -3.105,1.072 -1.098,1.171 0,0"
                         style="fill:#ff5555;fill-opacity:1;fill-rule:nonzero;stroke:none"
                         id="path8404" /></g></g></g></g><g
                 id="g8424"
                 style="fill:#ff5555"><g
                   id="g8414"
                   style="fill:#ff5555" /><g
                   id="g8422"
                   style="fill:#ff5555"><g
                     clip-path="url(#clipPath8176)"
                     opacity="0.451614"
                     id="g8420"
                     style="fill:#ff5555"><g
                       transform="translate(190.7061,282.3154)"
                       id="g8418"
                       style="fill:#ff5555"><path
                         d="M 0,0 C 1.073,-1.143 0.852,-3.095 -0.493,-4.358 -1.84,-5.62 -3.801,-5.714 -4.874,-4.571 -5.946,-3.427 -5.726,-1.476 -4.38,-0.214 -3.034,1.049 -1.073,1.144 0,0"
                         style="fill:#ff5555;fill-opacity:1;fill-rule:nonzero;stroke:none"
                         id="path8416" /></g></g></g></g><g
                 id="g8436"
                 style="fill:#ff5555"><g
                   id="g8426"
                   style="fill:#ff5555" /><g
                   id="g8434"
                   style="fill:#ff5555"><g
                     clip-path="url(#clipPath8180)"
                     opacity="0.483871"
                     id="g8432"
                     style="fill:#ff5555"><g
                       transform="translate(190.6484,282.3047)"
                       id="g8430"
                       style="fill:#ff5555"><path
                         d="m 0,0 c 1.049,-1.118 0.834,-3.023 -0.48,-4.258 -1.315,-1.232 -3.231,-1.324 -4.279,-0.207 -1.049,1.119 -0.833,3.024 0.482,4.258 C -2.965,1.025 -1.049,1.117 0,0"
                         style="fill:#ff5555;fill-opacity:1;fill-rule:nonzero;stroke:none"
                         id="path8428" /></g></g></g></g><g
                 id="g8448"
                 style="fill:#ff5555"><g
                   id="g8438"
                   style="fill:#ff5555" /><g
                   id="g8446"
                   style="fill:#ff5555"><g
                     clip-path="url(#clipPath8184)"
                     opacity="0.516129"
                     id="g8444"
                     style="fill:#ff5555"><g
                       transform="translate(190.5908,282.293)"
                       id="g8442"
                       style="fill:#ff5555"><path
                         d="M 0,0 C 1.024,-1.092 0.816,-2.953 -0.467,-4.156 -1.75,-5.359 -3.62,-5.447 -4.643,-4.358 -5.667,-3.264 -5.458,-1.404 -4.176,-0.201 -2.893,1.002 -1.024,1.091 0,0"
                         style="fill:#ff5555;fill-opacity:1;fill-rule:nonzero;stroke:none"
                         id="path8440" /></g></g></g></g><g
                 id="g8460"
                 style="fill:#ff5555"><g
                   id="g8450"
                   style="fill:#ff5555" /><g
                   id="g8458"
                   style="fill:#ff5555"><g
                     clip-path="url(#clipPath8188)"
                     opacity="0.548386"
                     id="g8456"
                     style="fill:#ff5555"><g
                       transform="translate(190.5332,282.2803)"
                       id="g8454"
                       style="fill:#ff5555"><path
                         d="m 0,0 c 1,-1.065 0.797,-2.88 -0.454,-4.055 -1.251,-1.173 -3.075,-1.259 -4.074,-0.194 -0.999,1.067 -0.796,2.882 0.454,4.055 C -2.824,0.979 -0.999,1.065 0,0"
                         style="fill:#ff5555;fill-opacity:1;fill-rule:nonzero;stroke:none"
                         id="path8452" /></g></g></g></g><g
                 id="g8472"
                 style="fill:#ff5555"><g
                   id="g8462"
                   style="fill:#ff5555" /><g
                   id="g8470"
                   style="fill:#ff5555"><g
                     clip-path="url(#clipPath8192)"
                     opacity="0.580643"
                     id="g8468"
                     style="fill:#ff5555"><g
                       transform="translate(190.4766,282.2686)"
                       id="g8466"
                       style="fill:#ff5555"><path
                         d="M 0,0 C 0.975,-1.04 0.777,-2.81 -0.441,-3.954 -1.66,-5.097 -3.44,-5.179 -4.414,-4.142 -5.39,-3.101 -5.191,-1.331 -3.973,-0.187 -2.754,0.956 -0.976,1.039 0,0"
                         style="fill:#ff5555;fill-opacity:1;fill-rule:nonzero;stroke:none"
                         id="path8464" /></g></g></g></g><g
                 id="g8484"
                 style="fill:#ff5555"><g
                   id="g8474"
                   style="fill:#ff5555" /><g
                   id="g8482"
                   style="fill:#ff5555"><g
                     clip-path="url(#clipPath8196)"
                     opacity="0.6129"
                     id="g8480"
                     style="fill:#ff5555"><g
                       transform="translate(190.418,282.2559)"
                       id="g8478"
                       style="fill:#ff5555"><path
                         d="m 0,0 c 0.951,-1.012 0.76,-2.736 -0.427,-3.852 -1.187,-1.113 -2.922,-1.193 -3.872,-0.181 -0.95,1.015 -0.758,2.74 0.43,3.853 C -2.684,0.934 -0.95,1.014 0,0"
                         style="fill:#ff5555;fill-opacity:1;fill-rule:nonzero;stroke:none"
                         id="path8476" /></g></g></g></g><g
                 id="g8496"
                 style="fill:#ff5555"><g
                   id="g8486"
                   style="fill:#ff5555" /><g
                   id="g8494"
                   style="fill:#ff5555"><g
                     clip-path="url(#clipPath8200)"
                     opacity="0.645157"
                     id="g8492"
                     style="fill:#ff5555"><g
                       transform="translate(190.3613,282.2441)"
                       id="g8490"
                       style="fill:#ff5555"><path
                         d="m 0,0 c 0.927,-0.986 0.741,-2.666 -0.415,-3.75 -1.155,-1.084 -2.844,-1.16 -3.77,-0.174 -0.925,0.988 -0.739,2.666 0.416,3.75 C -2.614,0.91 -0.926,0.988 0,0"
                         style="fill:#ff5555;fill-opacity:1;fill-rule:nonzero;stroke:none"
                         id="path8488" /></g></g></g></g><g
                 id="g8508"
                 style="fill:#ff5555"><g
                   id="g8498"
                   style="fill:#ff5555" /><g
                   id="g8506"
                   style="fill:#ff5555"><g
                     clip-path="url(#clipPath8204)"
                     opacity="0.677414"
                     id="g8504"
                     style="fill:#ff5555"><g
                       transform="translate(190.3037,282.2324)"
                       id="g8502"
                       style="fill:#ff5555"><path
                         d="m 0,0 c 0.902,-0.961 0.723,-2.594 -0.401,-3.648 -1.124,-1.055 -2.768,-1.129 -3.668,-0.168 -0.902,0.961 -0.721,2.595 0.402,3.649 C -2.544,0.887 -0.901,0.962 0,0"
                         style="fill:#ff5555;fill-opacity:1;fill-rule:nonzero;stroke:none"
                         id="path8500" /></g></g></g></g><g
                 id="g8520"
                 style="fill:#ff5555"><g
                   id="g8510"
                   style="fill:#ff5555" /><g
                   id="g8518"
                   style="fill:#ff5555"><g
                     clip-path="url(#clipPath8208)"
                     opacity="0.709671"
                     id="g8516"
                     style="fill:#ff5555"><g
                       transform="translate(190.2461,282.2207)"
                       id="g8514"
                       style="fill:#ff5555"><path
                         d="m 0,0 c 0.878,-0.934 0.704,-2.523 -0.389,-3.549 -1.091,-1.023 -2.689,-1.094 -3.565,-0.16 -0.877,0.936 -0.703,2.523 0.39,3.549 C -2.474,0.863 -0.877,0.935 0,0"
                         style="fill:#ff5555;fill-opacity:1;fill-rule:nonzero;stroke:none"
                         id="path8512" /></g></g></g></g><g
                 id="g8532"
                 style="fill:#ff5555"><g
                   id="g8522"
                   style="fill:#ff5555" /><g
                   id="g8530"
                   style="fill:#ff5555"><g
                     clip-path="url(#clipPath8212)"
                     opacity="0.741928"
                     id="g8528"
                     style="fill:#ff5555"><g
                       transform="translate(190.1885,282.209)"
                       id="g8526"
                       style="fill:#ff5555"><path
                         d="m 0,0 c 0.854,-0.908 0.686,-2.451 -0.375,-3.447 -1.061,-0.994 -2.612,-1.063 -3.464,-0.155 -0.852,0.911 -0.684,2.453 0.376,3.448 C -2.403,0.841 -0.853,0.91 0,0"
                         style="fill:#ff5555;fill-opacity:1;fill-rule:nonzero;stroke:none"
                         id="path8524" /></g></g></g></g><g
                 id="g8544"
                 style="fill:#ff5555"><g
                   id="g8534"
                   style="fill:#ff5555" /><g
                   id="g8542"
                   style="fill:#ff5555"><g
                     clip-path="url(#clipPath8216)"
                     opacity="0.7742"
                     id="g8540"
                     style="fill:#ff5555"><g
                       transform="translate(190.1318,282.1973)"
                       id="g8538"
                       style="fill:#ff5555"><path
                         d="m 0,0 c 0.828,-0.883 0.666,-2.381 -0.362,-3.346 -1.03,-0.965 -2.535,-1.03 -3.363,-0.148 -0.828,0.885 -0.666,2.382 0.363,3.348 C -2.334,0.817 -0.829,0.883 0,0"
                         style="fill:#ff5555;fill-opacity:1;fill-rule:nonzero;stroke:none"
                         id="path8536" /></g></g></g></g><g
                 id="g8556"
                 style="fill:#ff5555"><g
                   id="g8546"
                   style="fill:#ff5555" /><g
                   id="g8554"
                   style="fill:#ff5555"><g
                     clip-path="url(#clipPath8220)"
                     opacity="0.806458"
                     id="g8552"
                     style="fill:#ff5555"><g
                       transform="translate(190.0742,282.1855)"
                       id="g8550"
                       style="fill:#ff5555"><path
                         d="m 0,0 c 0.804,-0.855 0.648,-2.308 -0.35,-3.245 -0.996,-0.935 -2.458,-0.997 -3.26,-0.142 -0.803,0.858 -0.647,2.311 0.35,3.246 C -2.265,0.794 -0.804,0.858 0,0"
                         style="fill:#ff5555;fill-opacity:1;fill-rule:nonzero;stroke:none"
                         id="path8548" /></g></g></g></g><g
                 id="g8568"
                 style="fill:#ff5555"><g
                   id="g8558"
                   style="fill:#ff5555" /><g
                   id="g8566"
                   style="fill:#ff5555"><g
                     clip-path="url(#clipPath8224)"
                     opacity="0.838715"
                     id="g8564"
                     style="fill:#ff5555"><g
                       transform="translate(190.0166,282.1738)"
                       id="g8562"
                       style="fill:#ff5555"><path
                         d="m 0,0 c 0.78,-0.83 0.63,-2.238 -0.336,-3.145 -0.966,-0.904 -2.381,-0.963 -3.159,-0.134 -0.779,0.832 -0.629,2.24 0.337,3.144 C -2.193,0.772 -0.779,0.831 0,0"
                         style="fill:#ff5555;fill-opacity:1;fill-rule:nonzero;stroke:none"
                         id="path8560" /></g></g></g></g><g
                 id="g8580"
                 style="fill:#ff5555"><g
                   id="g8570"
                   style="fill:#ff5555" /><g
                   id="g8578"
                   style="fill:#ff5555"><g
                     clip-path="url(#clipPath8228)"
                     opacity="0.870972"
                     id="g8576"
                     style="fill:#ff5555"><g
                       transform="translate(189.959,282.1621)"
                       id="g8574"
                       style="fill:#ff5555"><path
                         d="m 0,0 c 0.756,-0.805 0.611,-2.166 -0.322,-3.043 -0.935,-0.875 -2.304,-0.932 -3.058,-0.129 -0.755,0.807 -0.61,2.168 0.323,3.045 C -2.124,0.748 -0.755,0.805 0,0"
                         style="fill:#ff5555;fill-opacity:1;fill-rule:nonzero;stroke:none"
                         id="path8572" /></g></g></g></g><g
                 id="g8592"
                 style="fill:#ff5555"><g
                   id="g8582"
                   style="fill:#ff5555" /><g
                   id="g8590"
                   style="fill:#ff5555"><g
                     clip-path="url(#clipPath8232)"
                     opacity="0.903229"
                     id="g8588"
                     style="fill:#ff5555"><g
                       transform="translate(189.9023,282.1504)"
                       id="g8586"
                       style="fill:#ff5555"><path
                         d="m 0,0 c 0.73,-0.778 0.592,-2.096 -0.311,-2.941 -0.901,-0.846 -2.225,-0.9 -2.955,-0.122 -0.73,0.78 -0.591,2.096 0.311,2.942 0.9,0.846 2.224,0.9 2.955,0.121"
                         style="fill:#ff5555;fill-opacity:1;fill-rule:nonzero;stroke:none"
                         id="path8584" /></g></g></g></g><g
                 id="g8604"
                 style="fill:#ff5555"><g
                   id="g8594"
                   style="fill:#ff5555" /><g
                   id="g8602"
                   style="fill:#ff5555"><g
                     clip-path="url(#clipPath8236)"
                     opacity="0.935486"
                     id="g8600"
                     style="fill:#ff5555"><g
                       transform="translate(189.8447,282.1387)"
                       id="g8598"
                       style="fill:#ff5555"><path
                         d="m 0,0 c 0.706,-0.752 0.573,-2.023 -0.297,-2.841 -0.87,-0.815 -2.149,-0.866 -2.854,-0.114 -0.705,0.753 -0.573,2.023 0.297,2.84 C -1.984,0.701 -0.706,0.752 0,0"
                         style="fill:#ff5555;fill-opacity:1;fill-rule:nonzero;stroke:none"
                         id="path8596" /></g></g></g></g><g
                 id="g8616"
                 style="fill:#ff5555"><g
                   id="g8606"
                   style="fill:#ff5555" /><g
                   id="g8614"
                   style="fill:#ff5555"><g
                     clip-path="url(#clipPath8240)"
                     opacity="0.967743"
                     id="g8612"
                     style="fill:#ff5555"><g
                       transform="translate(189.7871,282.127)"
                       id="g8610"
                       style="fill:#ff5555"><path
                         d="m 0,0 c 0.682,-0.727 0.555,-1.953 -0.284,-2.74 -0.838,-0.785 -2.071,-0.833 -2.752,-0.108 -0.681,0.727 -0.554,1.953 0.285,2.74 C -1.914,0.678 -0.682,0.726 0,0"
                         style="fill:#ff5555;fill-opacity:1;fill-rule:nonzero;stroke:none"
                         id="path8608" /></g></g></g></g><g
                 id="g8628"
                 style="fill:#ff5555"><g
                   id="g8618"
                   style="fill:#ff5555" /><g
                   id="g8626"
                   style="fill:#ff5555"><g
                     clip-path="url(#clipPath8244)"
                     id="g8624"
                     style="fill:#ff5555"><g
                       transform="translate(189.7295,282.1152)"
                       id="g8622"
                       style="fill:#ff5555"><path
                         d="m 0,0 c 0.657,-0.7 0.536,-1.881 -0.27,-2.639 -0.807,-0.756 -1.995,-0.8 -2.651,-0.101 -0.656,0.701 -0.535,1.882 0.272,2.638 C -1.844,0.654 -0.657,0.7 0,0"
                         style="fill:#ff8080;fill-opacity:1;fill-rule:nonzero;stroke:none"
                         id="path8620" /></g></g></g></g></g></g></g></g></g></g></svg>
